<?xml version="1.0" encoding="utf-8"?>
<!-- Generator: Adobe Illustrator 15.1.0, SVG Export Plug-In . SVG Version: 6.00 Build 0)  -->
<!DOCTYPE svg PUBLIC "-//W3C//DTD SVG 1.1//EN" "http://www.w3.org/Graphics/SVG/1.1/DTD/svg11.dtd">
<svg version="1.1" id="Layer_1" xmlns="http://www.w3.org/2000/svg" xmlns:xlink="http://www.w3.org/1999/xlink" x="0px" y="0px"
	 width="227px" height="160px" viewBox="2.463 22.082 227 160" enable-background="new 2.463 22.082 227 160" xml:space="preserve">
<g>
	<g>
		<path fill="#DFE4E7" d="M190.241,179.543c0,1.191-0.88,2.158-1.964,2.158H79.586c-1.085,0-1.964-0.967-1.964-2.158v-59.082
			c0-1.191,0.88-2.158,1.964-2.158h108.691c1.086,0,1.964,0.967,1.964,2.158V179.543z"/>
		<path fill="#DFE4E7" d="M189.895,179.926c0,1.191-0.88,2.156-1.964,2.156H79.239c-1.083,0-1.962-0.967-1.962-2.156v-59.084
			c0-1.193,0.879-2.156,1.962-2.156h108.692c1.085,0,1.964,0.965,1.964,2.156V179.926z"/>
	</g>
</g>
<rect x="76.891" y="135.277" fill="#FFFFFF" stroke="#2A2A2A" stroke-width="1.0011" stroke-miterlimit="10" width="29.029" height="30.031"/>
<g>
	<path fill="#2A2A2A" d="M117.118,138.42c-0.784,0-1.405,0.262-1.859,0.785c-0.454,0.523-0.681,1.238-0.681,2.148
		c0,0.936,0.218,1.658,0.659,2.168c0.438,0.51,1.063,0.764,1.873,0.764c0.498,0,1.066-0.09,1.705-0.268v0.727
		c-0.494,0.186-1.106,0.279-1.832,0.279c-1.053,0-1.863-0.32-2.437-0.959c-0.572-0.637-0.858-1.545-0.858-2.721
		c0-0.736,0.139-1.381,0.413-1.936c0.275-0.555,0.674-0.982,1.192-1.281c0.52-0.299,1.132-0.449,1.836-0.449
		c0.751,0,1.404,0.137,1.965,0.412l-0.353,0.713C118.2,138.549,117.659,138.42,117.118,138.42z"/>
	<path fill="#2A2A2A" d="M121.204,141.955v2.973h-0.831v-7.146h1.963c0.875,0,1.522,0.168,1.943,0.502
		c0.416,0.336,0.625,0.842,0.625,1.516c0,0.947-0.479,1.584-1.437,1.918l1.94,3.211h-0.982l-1.73-2.973H121.204z M121.204,141.24
		h1.14c0.587,0,1.018-0.115,1.292-0.352c0.272-0.232,0.409-0.58,0.409-1.047c0-0.473-0.139-0.813-0.418-1.021
		c-0.277-0.209-0.726-0.313-1.342-0.313h-1.08L121.204,141.24L121.204,141.24z"/>
	<path fill="#2A2A2A" d="M126.563,144.924v-7.145h0.832v7.145H126.563z"/>
	<path fill="#2A2A2A" d="M133.386,143.023c0,0.629-0.229,1.121-0.685,1.471c-0.456,0.354-1.075,0.527-1.856,0.527
		c-0.849,0-1.499-0.107-1.957-0.326v-0.801c0.295,0.125,0.614,0.219,0.96,0.291c0.344,0.072,0.687,0.107,1.026,0.107
		c0.553,0,0.969-0.104,1.251-0.314c0.28-0.209,0.419-0.504,0.419-0.877c0-0.248-0.05-0.451-0.147-0.607
		c-0.1-0.158-0.266-0.305-0.499-0.439c-0.232-0.133-0.586-0.285-1.063-0.453c-0.665-0.238-1.141-0.521-1.425-0.846
		c-0.285-0.326-0.427-0.752-0.427-1.275c0-0.551,0.207-0.99,0.62-1.314c0.413-0.326,0.961-0.488,1.643-0.488
		c0.711,0,1.364,0.131,1.961,0.391l-0.26,0.723c-0.588-0.248-1.163-0.371-1.721-0.371c-0.439,0-0.783,0.096-1.03,0.285
		c-0.248,0.188-0.371,0.449-0.371,0.787c0,0.248,0.045,0.449,0.136,0.605c0.093,0.16,0.246,0.305,0.462,0.438
		c0.217,0.131,0.548,0.277,0.995,0.438c0.748,0.268,1.264,0.555,1.546,0.859C133.244,142.137,133.386,142.535,133.386,143.023z"/>
	<path fill="#2A2A2A" d="M137.047,144.924h-0.832v-6.406h-2.264v-0.738h5.357v0.738h-2.264v6.406H137.047z"/>
	<path fill="#2A2A2A" d="M140.385,144.924v-7.145h0.831v7.145H140.385z"/>
	<path fill="#2A2A2A" d="M148.758,144.924h-0.95l-3.904-5.996h-0.038c0.052,0.703,0.078,1.35,0.078,1.936v4.061h-0.767v-7.145h0.938
		l3.895,5.973h0.041c-0.008-0.09-0.021-0.369-0.045-0.848c-0.023-0.479-0.032-0.82-0.024-1.025v-4.1h0.777V144.924L148.758,144.924z
		"/>
	<path fill="#2A2A2A" d="M155.214,144.924l-0.889-2.271h-2.865l-0.879,2.271h-0.84l2.824-7.174h0.699l2.812,7.174H155.214z
		 M154.066,141.904l-0.831-2.213c-0.108-0.281-0.22-0.625-0.333-1.031c-0.073,0.313-0.174,0.656-0.307,1.031l-0.843,2.213H154.066z"
		/>
	<path fill="#2A2A2A" d="M159.657,144.924v-7.145h0.832v6.393h3.151v0.752H159.657z"/>
	<path fill="#2A2A2A" d="M171.057,141.344c0,1.145-0.291,2.043-0.87,2.697c-0.576,0.656-1.381,0.984-2.41,0.984
		c-1.054,0-1.865-0.322-2.438-0.967c-0.569-0.643-0.856-1.551-0.856-2.725c0-1.162,0.287-2.064,0.86-2.703
		c0.572-0.643,1.388-0.963,2.443-0.963c1.027,0,1.829,0.328,2.406,0.979C170.768,139.297,171.057,140.197,171.057,141.344z
		 M165.362,141.344c0,0.967,0.205,1.701,0.618,2.201c0.41,0.502,1.01,0.752,1.796,0.752c0.792,0,1.39-0.25,1.795-0.75
		c0.403-0.498,0.604-1.232,0.604-2.203c0-0.961-0.201-1.691-0.604-2.188c-0.401-0.496-0.996-0.746-1.787-0.746
		s-1.393,0.25-1.805,0.75C165.567,139.66,165.362,140.387,165.362,141.344z"/>
	<path fill="#2A2A2A" d="M177.181,139.863c0,0.723-0.247,1.279-0.74,1.668c-0.494,0.391-1.2,0.584-2.12,0.584h-0.84v2.813h-0.83
		v-7.146h1.852C176.288,137.779,177.181,138.475,177.181,139.863z M173.479,141.402h0.749c0.735,0,1.269-0.119,1.599-0.357
		c0.329-0.236,0.493-0.619,0.493-1.145c0-0.473-0.155-0.824-0.465-1.055c-0.31-0.232-0.791-0.348-1.447-0.348h-0.929V141.402z"/>
	<path fill="#2A2A2A" d="M182.66,144.924h-3.982v-7.145h3.982v0.738h-3.153v2.303h2.964v0.732h-2.964v2.629h3.153V144.924z"/>
	<path fill="#2A2A2A" d="M188.574,144.924h-4.911v-0.648l3.791-5.748h-3.676v-0.748h4.688v0.65l-3.793,5.742h3.9V144.924
		L188.574,144.924z"/>
</g>
<g enable-background="new    ">
	<path fill="#2A2A2A" d="M117.67,163.558c0,0.794-0.215,1.4-0.646,1.82c-0.43,0.421-1.049,0.63-1.858,0.63h-1.333v-4.809h1.473
		c0.747,0,1.328,0.207,1.743,0.621S117.67,162.813,117.67,163.558z M117.078,163.577c0-0.627-0.156-1.1-0.472-1.418
		c-0.315-0.317-0.784-0.477-1.403-0.477h-0.813v3.842h0.682c0.667,0,1.166-0.163,1.502-0.491S117.078,164.219,117.078,163.577z"/>
	<path fill="#2A2A2A" d="M118.615,161.427c0-0.125,0.029-0.216,0.091-0.275c0.062-0.059,0.138-0.088,0.23-0.088
		c0.088,0,0.164,0.031,0.228,0.09c0.063,0.06,0.095,0.149,0.095,0.273c0,0.123-0.032,0.214-0.095,0.274
		c-0.063,0.061-0.14,0.091-0.228,0.091c-0.093,0-0.169-0.03-0.23-0.091S118.615,161.55,118.615,161.427z M119.206,166.008h-0.546
		v-3.604h0.546V166.008z"/>
	<path fill="#2A2A2A" d="M122.689,165.025c0,0.336-0.124,0.594-0.376,0.775c-0.249,0.182-0.601,0.273-1.053,0.273
		c-0.478,0-0.851-0.076-1.119-0.227v-0.507c0.175,0.087,0.36,0.156,0.559,0.207c0.197,0.051,0.392,0.076,0.574,0.076
		c0.285,0,0.504-0.046,0.658-0.136c0.153-0.093,0.229-0.23,0.229-0.417c0-0.142-0.061-0.261-0.182-0.36
		c-0.122-0.1-0.36-0.218-0.713-0.354c-0.335-0.124-0.572-0.234-0.716-0.327c-0.141-0.093-0.245-0.199-0.314-0.318
		c-0.07-0.118-0.104-0.259-0.104-0.423c0-0.295,0.118-0.525,0.358-0.695c0.239-0.171,0.566-0.255,0.983-0.255
		c0.388,0,0.768,0.08,1.138,0.237l-0.193,0.443c-0.361-0.149-0.69-0.224-0.984-0.224c-0.259,0-0.454,0.04-0.585,0.12
		c-0.132,0.082-0.197,0.194-0.197,0.336c0,0.097,0.024,0.179,0.074,0.248c0.05,0.066,0.129,0.132,0.238,0.192
		s0.319,0.15,0.632,0.268c0.429,0.155,0.716,0.311,0.866,0.47C122.613,164.586,122.689,164.785,122.689,165.025z"/>
	<path fill="#2A2A2A" d="M125.1,166.074c-0.532,0-0.952-0.163-1.261-0.486c-0.31-0.325-0.462-0.775-0.462-1.353
		c0-0.581,0.144-1.043,0.43-1.385c0.286-0.343,0.67-0.513,1.152-0.513c0.452,0,0.81,0.147,1.072,0.444
		c0.264,0.298,0.395,0.689,0.395,1.178v0.344h-2.483c0.012,0.423,0.118,0.743,0.321,0.965c0.203,0.22,0.488,0.328,0.856,0.328
		c0.388,0,0.772-0.082,1.151-0.243v0.485c-0.193,0.084-0.375,0.144-0.546,0.18C125.552,166.056,125.344,166.074,125.1,166.074z
		 M124.951,162.795c-0.288,0-0.519,0.095-0.692,0.281c-0.171,0.189-0.272,0.451-0.304,0.783h1.885c0-0.344-0.077-0.606-0.23-0.79
		C125.457,162.886,125.237,162.795,124.951,162.795z"/>
	<path fill="#2A2A2A" d="M129.823,166.008v-2.332c0-0.294-0.066-0.513-0.2-0.657s-0.344-0.218-0.628-0.218
		c-0.378,0-0.654,0.104-0.83,0.307c-0.175,0.205-0.262,0.54-0.262,1.01v1.891h-0.548v-3.604h0.445l0.089,0.494h0.025
		c0.112-0.179,0.269-0.315,0.471-0.413c0.201-0.099,0.427-0.146,0.674-0.146c0.435,0,0.762,0.105,0.98,0.313
		c0.219,0.21,0.329,0.544,0.329,1.005v2.353H129.823L129.823,166.008z M129.414,161.92c-0.093,0-0.186-0.021-0.274-0.061
		s-0.181-0.086-0.265-0.135c-0.087-0.05-0.171-0.096-0.25-0.136c-0.081-0.039-0.157-0.061-0.231-0.061
		c-0.111,0-0.193,0.033-0.25,0.1c-0.055,0.065-0.1,0.165-0.129,0.299h-0.322c0.028-0.266,0.105-0.474,0.232-0.624
		c0.125-0.149,0.288-0.225,0.487-0.225c0.102,0,0.198,0.021,0.294,0.061c0.094,0.04,0.184,0.086,0.269,0.135s0.17,0.096,0.247,0.135
		c0.079,0.042,0.153,0.062,0.224,0.062c0.108,0,0.188-0.031,0.24-0.098c0.053-0.065,0.096-0.165,0.129-0.3h0.324
		c-0.028,0.265-0.104,0.473-0.229,0.623C129.787,161.845,129.622,161.92,129.414,161.92z"/>
	<path fill="#2A2A2A" d="M133.708,166.008l-0.108-0.512h-0.026c-0.179,0.227-0.359,0.377-0.537,0.459
		c-0.18,0.08-0.403,0.119-0.67,0.119c-0.357,0-0.639-0.092-0.842-0.276c-0.202-0.185-0.304-0.446-0.304-0.787
		c0-0.728,0.583-1.108,1.746-1.144l0.612-0.02v-0.224c0-0.283-0.061-0.492-0.182-0.627c-0.122-0.134-0.316-0.202-0.584-0.202
		c-0.301,0-0.641,0.092-1.021,0.275l-0.168-0.416c0.179-0.097,0.374-0.174,0.584-0.227c0.213-0.056,0.424-0.083,0.637-0.083
		c0.431,0,0.749,0.095,0.956,0.286c0.208,0.191,0.312,0.496,0.312,0.917v2.46H133.708L133.708,166.008z M132.476,165.623
		c0.34,0,0.606-0.093,0.8-0.279c0.193-0.188,0.291-0.447,0.291-0.783v-0.325l-0.546,0.023c-0.435,0.017-0.747,0.082-0.938,0.202
		c-0.192,0.118-0.289,0.306-0.289,0.557c0,0.197,0.062,0.349,0.182,0.452C132.093,165.571,132.259,165.623,132.476,165.623z"/>
	<path fill="#2A2A2A" d="M137.691,165.524h-0.029c-0.253,0.366-0.63,0.549-1.131,0.549c-0.473,0-0.839-0.162-1.102-0.483
		c-0.262-0.321-0.392-0.779-0.392-1.376c0-0.593,0.132-1.055,0.395-1.384c0.264-0.329,0.63-0.493,1.099-0.493
		c0.489,0,0.863,0.178,1.125,0.533h0.043l-0.023-0.261l-0.013-0.253v-1.466h0.546v5.117h-0.445L137.691,165.524z M136.601,165.616
		c0.372,0,0.642-0.102,0.81-0.304c0.168-0.203,0.252-0.53,0.252-0.982v-0.113c0-0.512-0.084-0.877-0.256-1.095
		c-0.169-0.218-0.441-0.327-0.813-0.327c-0.318,0-0.564,0.124-0.734,0.374c-0.171,0.248-0.255,0.6-0.255,1.054
		c0,0.461,0.084,0.808,0.252,1.043C136.023,165.5,136.272,165.616,136.601,165.616z"/>
	<path fill="#2A2A2A" d="M142.478,164.202c0,0.588-0.147,1.047-0.444,1.378c-0.295,0.329-0.703,0.494-1.226,0.494
		c-0.322,0-0.609-0.076-0.858-0.227c-0.25-0.152-0.443-0.369-0.58-0.651c-0.134-0.283-0.203-0.613-0.203-0.994
		c0-0.588,0.146-1.045,0.441-1.373c0.293-0.328,0.702-0.491,1.224-0.491c0.504,0,0.905,0.167,1.202,0.503
		C142.328,163.177,142.478,163.629,142.478,164.202z M139.731,164.202c0,0.461,0.093,0.813,0.276,1.053
		c0.185,0.241,0.454,0.361,0.813,0.361c0.357,0,0.628-0.119,0.813-0.359c0.184-0.24,0.277-0.592,0.277-1.055
		c0-0.458-0.094-0.807-0.277-1.044c-0.186-0.237-0.459-0.357-0.821-0.357c-0.357,0-0.626,0.118-0.809,0.353
		S139.731,163.737,139.731,164.202z"/>
	<path fill="#2A2A2A" d="M145.079,162.338c0.16,0,0.305,0.013,0.431,0.039l-0.076,0.507c-0.147-0.032-0.28-0.049-0.394-0.049
		c-0.292,0-0.542,0.117-0.749,0.354c-0.208,0.236-0.311,0.532-0.311,0.885v1.934h-0.545v-3.604h0.45l0.063,0.667h0.025
		c0.134-0.234,0.296-0.414,0.484-0.541C144.645,162.399,144.853,162.338,145.079,162.338z"/>
	<path fill="#2A2A2A" d="M151.646,161.199v3.112c0,0.548-0.165,0.979-0.496,1.293c-0.331,0.312-0.785,0.47-1.365,0.47
		c-0.579,0-1.027-0.158-1.343-0.475c-0.317-0.314-0.475-0.75-0.475-1.302v-3.099h0.559v3.138c0,0.401,0.11,0.709,0.329,0.924
		c0.219,0.216,0.542,0.323,0.967,0.323c0.406,0,0.718-0.107,0.937-0.324c0.221-0.215,0.33-0.526,0.33-0.93v-3.131H151.646z"/>
	<path fill="#2A2A2A" d="M156.12,166.008h-0.636l-1.291-2.115l-1.316,2.115h-0.591l1.598-2.514l-1.49-2.295h0.618l1.195,1.905
		l1.202-1.905h0.596l-1.489,2.275L156.12,166.008z"/>
	<path fill="#2A2A2A" d="M160.802,165.025c0,0.336-0.125,0.594-0.377,0.775c-0.248,0.182-0.602,0.273-1.052,0.273
		c-0.477,0-0.851-0.076-1.118-0.227v-0.507c0.173,0.087,0.359,0.156,0.558,0.207s0.391,0.076,0.573,0.076
		c0.286,0,0.504-0.046,0.658-0.136c0.153-0.093,0.229-0.23,0.229-0.417c0-0.142-0.061-0.261-0.182-0.36
		c-0.122-0.1-0.359-0.218-0.713-0.354c-0.336-0.124-0.572-0.234-0.715-0.327c-0.142-0.093-0.246-0.199-0.314-0.318
		c-0.068-0.118-0.104-0.259-0.104-0.423c0-0.295,0.119-0.525,0.358-0.695c0.239-0.171,0.567-0.255,0.984-0.255
		c0.388,0,0.768,0.08,1.138,0.237l-0.193,0.443c-0.362-0.149-0.69-0.224-0.984-0.224c-0.259,0-0.454,0.04-0.586,0.12
		c-0.132,0.082-0.196,0.194-0.196,0.336c0,0.097,0.023,0.179,0.073,0.248c0.05,0.066,0.131,0.132,0.238,0.192
		c0.11,0.061,0.32,0.15,0.633,0.268c0.428,0.155,0.715,0.311,0.866,0.47C160.727,164.586,160.802,164.785,160.802,165.025z"/>
	<path fill="#2A2A2A" d="M163.212,166.074c-0.534,0-0.953-0.163-1.261-0.486c-0.309-0.325-0.463-0.775-0.463-1.353
		c0-0.581,0.145-1.043,0.43-1.385c0.285-0.343,0.67-0.513,1.153-0.513c0.451,0,0.811,0.147,1.072,0.444
		c0.263,0.298,0.395,0.689,0.395,1.178v0.344h-2.482c0.01,0.423,0.117,0.743,0.319,0.965c0.204,0.22,0.488,0.328,0.856,0.328
		c0.389,0,0.773-0.082,1.153-0.243v0.485c-0.194,0.084-0.377,0.144-0.549,0.18C163.663,166.056,163.457,166.074,163.212,166.074z
		 M163.065,162.795c-0.29,0-0.521,0.095-0.693,0.281c-0.173,0.189-0.273,0.451-0.305,0.783h1.884c0-0.344-0.077-0.606-0.229-0.79
		C163.568,162.886,163.351,162.795,163.065,162.795z"/>
	<path fill="#2A2A2A" d="M167.937,166.008v-2.332c0-0.294-0.066-0.513-0.201-0.657s-0.344-0.218-0.628-0.218
		c-0.377,0-0.654,0.104-0.831,0.307c-0.175,0.205-0.263,0.54-0.263,1.01v1.891h-0.545v-3.604h0.443l0.089,0.494h0.025
		c0.112-0.179,0.271-0.315,0.471-0.413c0.203-0.099,0.427-0.146,0.675-0.146c0.435,0,0.761,0.105,0.979,0.313
		c0.22,0.21,0.329,0.544,0.329,1.005v2.353H167.937L167.937,166.008z"/>
	<path fill="#2A2A2A" d="M169.557,161.427c0-0.125,0.03-0.216,0.092-0.275c0.063-0.059,0.139-0.088,0.231-0.088
		c0.087,0,0.163,0.031,0.227,0.09c0.063,0.06,0.096,0.149,0.096,0.273c0,0.123-0.032,0.214-0.096,0.274s-0.14,0.091-0.227,0.091
		c-0.093,0-0.169-0.03-0.231-0.091C169.587,161.641,169.557,161.55,169.557,161.427z M170.149,166.008h-0.546v-3.604h0.546V166.008z
		"/>
	<path fill="#2A2A2A" d="M174.418,164.202c0,0.588-0.146,1.047-0.443,1.378c-0.297,0.329-0.704,0.494-1.227,0.494
		c-0.322,0-0.608-0.076-0.859-0.227c-0.248-0.152-0.441-0.369-0.579-0.651c-0.135-0.283-0.203-0.613-0.203-0.994
		c0-0.588,0.148-1.045,0.44-1.373c0.295-0.328,0.702-0.491,1.225-0.491c0.504,0,0.905,0.167,1.202,0.503
		C174.269,163.177,174.418,163.629,174.418,164.202z M171.672,164.202c0,0.461,0.092,0.813,0.275,1.053
		c0.185,0.241,0.455,0.361,0.813,0.361c0.357,0,0.63-0.119,0.813-0.359c0.186-0.24,0.279-0.592,0.279-1.055
		c0-0.458-0.094-0.807-0.279-1.044c-0.184-0.237-0.458-0.357-0.82-0.357c-0.358,0-0.627,0.118-0.809,0.353
		S171.672,163.737,171.672,164.202z"/>
	<path fill="#2A2A2A" d="M177.021,162.338c0.161,0,0.304,0.013,0.431,0.039l-0.075,0.507c-0.149-0.032-0.28-0.049-0.396-0.049
		c-0.291,0-0.54,0.117-0.748,0.354c-0.208,0.236-0.31,0.532-0.31,0.885v1.934h-0.547v-3.604h0.452l0.062,0.667h0.027
		c0.134-0.234,0.293-0.414,0.481-0.541C176.587,162.399,176.794,162.338,177.021,162.338z"/>
</g>
<g enable-background="new    ">
	<path fill="#2A2A2A" d="M113.5,168.188h1.359c0.637,0,1.1,0.095,1.385,0.286c0.287,0.19,0.428,0.492,0.428,0.904
		c0,0.285-0.08,0.521-0.238,0.705c-0.159,0.186-0.391,0.306-0.696,0.359v0.034c0.731,0.125,1.095,0.509,1.095,1.151
		c0,0.431-0.146,0.766-0.435,1.006c-0.29,0.242-0.698,0.361-1.22,0.361h-1.679v-4.808H113.5z M114.061,170.246h0.922
		c0.394,0,0.679-0.061,0.85-0.185c0.177-0.124,0.261-0.335,0.261-0.627c0-0.27-0.096-0.466-0.288-0.583
		c-0.193-0.12-0.5-0.181-0.922-0.181h-0.822V170.246z M114.061,170.72v1.799h1.002c0.391,0,0.681-0.074,0.878-0.225
		c0.196-0.15,0.295-0.385,0.295-0.706c0-0.299-0.102-0.516-0.302-0.656c-0.202-0.143-0.506-0.212-0.917-0.212H114.061z"/>
	<path fill="#2A2A2A" d="M117.74,168.414c0-0.125,0.029-0.216,0.09-0.274c0.063-0.058,0.139-0.087,0.23-0.087
		c0.089,0,0.164,0.029,0.227,0.088c0.064,0.06,0.096,0.151,0.096,0.273c0,0.123-0.031,0.216-0.096,0.275
		c-0.063,0.06-0.138,0.091-0.227,0.091c-0.092,0-0.168-0.031-0.23-0.091C117.77,168.63,117.74,168.537,117.74,168.414z
		 M118.33,172.995h-0.547v-3.604h0.547V172.995z"/>
	<path fill="#2A2A2A" d="M120.033,172.995h-0.545v-5.116h0.545V172.995z"/>
	<path fill="#2A2A2A" d="M122.869,169.332c0.474,0,0.841,0.161,1.104,0.483c0.263,0.324,0.393,0.781,0.393,1.374
		c0,0.592-0.132,1.053-0.396,1.381c-0.264,0.328-0.631,0.492-1.1,0.492c-0.234,0-0.448-0.045-0.642-0.131
		c-0.195-0.086-0.358-0.219-0.489-0.399h-0.04l-0.115,0.463h-0.391v-5.116h0.546v1.242c0,0.278-0.009,0.528-0.024,0.75h0.024
		C121.991,169.512,122.369,169.332,122.869,169.332z M122.789,169.788c-0.372,0-0.641,0.107-0.805,0.322
		c-0.164,0.212-0.246,0.572-0.246,1.079s0.084,0.869,0.253,1.088c0.168,0.217,0.441,0.326,0.813,0.326
		c0.335,0,0.585-0.121,0.749-0.366c0.163-0.245,0.246-0.597,0.246-1.054c0-0.47-0.083-0.82-0.246-1.049
		C123.39,169.903,123.134,169.788,122.789,169.788z"/>
	<path fill="#2A2A2A" d="M127.537,172.995l-0.108-0.513h-0.026c-0.181,0.227-0.36,0.378-0.539,0.459
		c-0.179,0.08-0.402,0.121-0.67,0.121c-0.358,0-0.638-0.093-0.839-0.278c-0.204-0.183-0.306-0.445-0.306-0.786
		c0-0.727,0.582-1.109,1.748-1.145l0.61-0.019v-0.224c0-0.283-0.061-0.492-0.183-0.627c-0.12-0.135-0.316-0.201-0.583-0.201
		c-0.3,0-0.641,0.09-1.02,0.275l-0.168-0.417c0.178-0.097,0.373-0.173,0.584-0.228s0.423-0.082,0.636-0.082
		c0.432,0,0.749,0.095,0.956,0.286c0.207,0.19,0.311,0.497,0.311,0.918v2.459H127.537L127.537,172.995z M126.303,172.611
		c0.341,0,0.606-0.094,0.802-0.278c0.193-0.187,0.291-0.449,0.291-0.785v-0.323l-0.547,0.021c-0.434,0.017-0.746,0.083-0.938,0.202
		c-0.192,0.119-0.288,0.306-0.288,0.559c0,0.197,0.06,0.347,0.179,0.45C125.923,172.561,126.089,172.611,126.303,172.611z"/>
	<path fill="#2A2A2A" d="M132.177,171.189c0,0.59-0.146,1.048-0.444,1.378c-0.295,0.329-0.703,0.495-1.225,0.495
		c-0.322,0-0.607-0.075-0.858-0.227s-0.443-0.369-0.579-0.652c-0.137-0.282-0.204-0.613-0.204-0.994c0-0.586,0.148-1.044,0.44-1.371
		c0.294-0.329,0.702-0.492,1.225-0.492c0.505,0,0.905,0.167,1.201,0.502C132.029,170.164,132.177,170.618,132.177,171.189z
		 M129.43,171.189c0,0.462,0.093,0.813,0.278,1.056c0.185,0.239,0.455,0.36,0.812,0.36c0.358,0,0.63-0.12,0.815-0.36
		c0.184-0.239,0.277-0.591,0.277-1.056c0-0.458-0.094-0.805-0.277-1.043c-0.186-0.239-0.46-0.356-0.821-0.356
		c-0.358,0-0.628,0.117-0.809,0.351C129.522,170.375,129.43,170.726,129.43,171.189z"/>
</g>
<g enable-background="new    ">
	<path fill="#2A2A2A" d="M83.465,168.679c-0.314,0-0.562,0.104-0.744,0.313c-0.182,0.209-0.272,0.495-0.272,0.859
		c0,0.374,0.087,0.662,0.263,0.867c0.176,0.204,0.425,0.306,0.75,0.306c0.2,0,0.427-0.036,0.683-0.108v0.293
		c-0.197,0.074-0.443,0.111-0.734,0.111c-0.42,0-0.746-0.129-0.974-0.384c-0.228-0.253-0.343-0.619-0.343-1.089
		c0-0.293,0.055-0.552,0.165-0.773c0.11-0.222,0.27-0.392,0.477-0.513s0.453-0.18,0.734-0.18c0.3,0,0.563,0.055,0.787,0.165
		l-0.141,0.285C83.897,168.729,83.681,168.679,83.465,168.679z"/>
	<path fill="#2A2A2A" d="M86.568,170.207c0,0.348-0.088,0.621-0.264,0.817c-0.175,0.196-0.418,0.294-0.729,0.294
		c-0.191,0-0.362-0.045-0.51-0.136c-0.149-0.089-0.264-0.219-0.344-0.387c-0.081-0.168-0.121-0.365-0.121-0.591
		c0-0.348,0.087-0.621,0.262-0.816c0.174-0.194,0.417-0.292,0.727-0.292c0.3,0,0.539,0.099,0.715,0.3
		C86.479,169.597,86.568,169.866,86.568,170.207z M84.935,170.207c0,0.272,0.055,0.48,0.165,0.624
		c0.109,0.145,0.271,0.215,0.483,0.215s0.374-0.07,0.483-0.213c0.11-0.143,0.166-0.351,0.166-0.626c0-0.273-0.055-0.48-0.166-0.621
		c-0.11-0.143-0.272-0.213-0.487-0.213c-0.212,0-0.373,0.069-0.481,0.209S84.935,169.93,84.935,170.207z"/>
	<path fill="#2A2A2A" d="M88.603,171.28v-1.387c0-0.175-0.039-0.304-0.119-0.39c-0.08-0.088-0.204-0.13-0.373-0.13
		c-0.225,0-0.389,0.061-0.493,0.182c-0.104,0.121-0.156,0.322-0.156,0.601v1.124h-0.325v-2.144h0.265l0.053,0.293h0.016
		c0.067-0.105,0.16-0.188,0.28-0.245c0.119-0.059,0.253-0.088,0.401-0.088c0.258,0,0.452,0.063,0.583,0.187
		c0.13,0.125,0.195,0.325,0.195,0.598v1.398L88.603,171.28L88.603,171.28z"/>
	<path fill="#2A2A2A" d="M90.287,171.052c0.057,0,0.112-0.005,0.166-0.014c0.053-0.008,0.096-0.017,0.126-0.026v0.249
		c-0.035,0.018-0.086,0.032-0.156,0.042c-0.067,0.012-0.129,0.018-0.184,0.018c-0.414,0-0.622-0.218-0.622-0.655v-1.274H89.31
		v-0.156l0.308-0.136l0.136-0.457h0.188v0.496h0.623v0.253h-0.623v1.261c0,0.131,0.031,0.229,0.092,0.298
		C90.095,171.018,90.18,171.052,90.287,171.052z"/>
	<path fill="#2A2A2A" d="M92.326,171.28l-0.064-0.305h-0.016c-0.107,0.134-0.214,0.225-0.32,0.272
		c-0.106,0.048-0.238,0.072-0.397,0.072c-0.213,0-0.378-0.056-0.5-0.165c-0.12-0.11-0.181-0.267-0.181-0.468
		c0-0.434,0.346-0.66,1.039-0.68l0.363-0.012v-0.134c0-0.169-0.037-0.292-0.108-0.372c-0.071-0.08-0.188-0.121-0.346-0.121
		c-0.178,0-0.381,0.056-0.606,0.165l-0.1-0.249c0.105-0.058,0.222-0.103,0.348-0.135c0.125-0.032,0.251-0.049,0.378-0.049
		c0.255,0,0.445,0.057,0.568,0.169c0.124,0.115,0.185,0.297,0.185,0.547v1.462L92.326,171.28L92.326,171.28z M91.592,171.052
		c0.203,0,0.361-0.057,0.477-0.167c0.116-0.109,0.173-0.265,0.173-0.465v-0.194l-0.325,0.014c-0.258,0.009-0.444,0.051-0.558,0.12
		c-0.114,0.073-0.172,0.182-0.172,0.332c0,0.117,0.037,0.207,0.106,0.269C91.366,171.021,91.466,171.052,91.592,171.052z"/>
	<path fill="#2A2A2A" d="M94.091,171.32c-0.311,0-0.55-0.097-0.721-0.288c-0.169-0.189-0.254-0.461-0.254-0.811
		c0-0.357,0.086-0.636,0.258-0.831c0.173-0.195,0.419-0.293,0.739-0.293c0.104,0,0.207,0.012,0.309,0.034
		c0.103,0.021,0.184,0.047,0.243,0.077l-0.099,0.275c-0.072-0.027-0.15-0.054-0.235-0.07c-0.083-0.018-0.159-0.028-0.224-0.028
		c-0.435,0-0.653,0.278-0.653,0.834c0,0.263,0.054,0.465,0.16,0.604c0.106,0.141,0.263,0.212,0.472,0.212
		c0.178,0,0.361-0.038,0.549-0.115v0.288C94.49,171.283,94.309,171.32,94.091,171.32z"/>
	<path fill="#2A2A2A" d="M95.833,171.052c0.058,0,0.113-0.005,0.166-0.014c0.053-0.008,0.096-0.017,0.128-0.026v0.249
		c-0.036,0.018-0.088,0.032-0.156,0.042c-0.068,0.012-0.13,0.018-0.185,0.018c-0.414,0-0.622-0.218-0.622-0.655v-1.274h-0.307
		v-0.156l0.307-0.136l0.137-0.457h0.188v0.496h0.622v0.253h-0.622v1.261c0,0.131,0.031,0.229,0.091,0.298
		C95.643,171.018,95.726,171.052,95.833,171.052z"/>
	<path fill="#2A2A2A" d="M97.873,171.28l-0.064-0.305h-0.016c-0.107,0.134-0.213,0.225-0.32,0.272
		c-0.105,0.048-0.239,0.072-0.398,0.072c-0.212,0-0.379-0.056-0.5-0.165c-0.12-0.11-0.181-0.267-0.181-0.468
		c0-0.434,0.346-0.66,1.038-0.68l0.364-0.012v-0.134c0-0.169-0.036-0.292-0.109-0.372c-0.072-0.08-0.187-0.121-0.347-0.121
		c-0.179,0-0.38,0.056-0.606,0.165l-0.1-0.249c0.105-0.058,0.222-0.103,0.348-0.135c0.125-0.032,0.251-0.049,0.378-0.049
		c0.255,0,0.444,0.057,0.567,0.169c0.124,0.115,0.184,0.297,0.184,0.547v1.462L97.873,171.28L97.873,171.28z M97.139,171.052
		c0.202,0,0.361-0.057,0.476-0.167c0.116-0.109,0.173-0.265,0.173-0.465v-0.194l-0.324,0.014c-0.259,0.009-0.445,0.051-0.559,0.12
		c-0.113,0.073-0.171,0.182-0.171,0.332c0,0.117,0.037,0.207,0.107,0.269C96.912,171.021,97.012,171.052,97.139,171.052z"/>
	<path fill="#2A2A2A" d="M99.76,169.098c0.095,0,0.179,0.008,0.255,0.024l-0.046,0.3c-0.089-0.02-0.166-0.029-0.234-0.029
		c-0.174,0-0.32,0.071-0.445,0.211c-0.123,0.141-0.184,0.316-0.184,0.526v1.149h-0.325v-2.143h0.268l0.037,0.396h0.016
		c0.081-0.139,0.175-0.248,0.289-0.323C99.502,169.137,99.624,169.098,99.76,169.098z"/>
</g>
<polygon fill="#2A2A2A" points="120.481,157.557 117.666,156.037 114.904,157.656 115.375,154.326 113.074,152.012 116.186,151.469 
	117.523,148.422 118.977,151.42 122.102,151.846 119.889,154.242 "/>
<polygon fill="#2A2A2A" points="132.184,157.557 129.366,156.037 126.604,157.656 127.077,154.326 124.776,152.012 127.888,151.469 
	129.225,148.422 130.675,151.42 133.803,151.846 131.59,154.242 "/>
<polygon fill="#2A2A2A" points="143.885,157.557 141.065,156.037 138.306,157.656 138.777,154.326 136.478,152.012 139.588,151.469 
	140.924,148.422 142.377,151.42 145.503,151.846 143.29,154.242 "/>
<polygon fill="#FFFFFF" points="154.121,157.557 151.306,156.037 148.543,157.656 149.015,154.326 146.715,152.012 149.823,151.469 
	151.163,148.422 152.615,151.42 155.744,151.846 153.528,154.242 "/>
<g>
	<g>
		<path fill="#DFE4E7" d="M190.085,89.932c0,1.211-0.883,2.193-1.972,2.193H79.034c-1.088,0-1.969-0.982-1.969-2.193V29.854
			c0-1.21,0.881-2.193,1.969-2.193h109.08c1.09,0,1.972,0.982,1.972,2.193V89.932L190.085,89.932z"/>
		<path fill="#DFE4E7" d="M189.735,89.543c0,1.211-0.883,2.193-1.97,2.193H78.684c-1.088,0-1.971-0.983-1.971-2.193V29.466
			c0-1.211,0.884-2.193,1.971-2.193h109.082c1.088,0,1.97,0.983,1.97,2.193V89.543z"/>
	</g>
</g>
<rect x="82.162" y="36.977" fill="#FFFFFF" stroke="#2A2A2A" stroke-width="0.842" stroke-miterlimit="10" width="24.417" height="24.417"/>
<g enable-background="new    ">
	<path fill="#2A2A2A" d="M116.816,43.114c0,0.528-0.193,0.941-0.574,1.238c-0.385,0.295-0.906,0.443-1.563,0.443
		c-0.711,0-1.26-0.092-1.645-0.275v-0.674c0.246,0.104,0.514,0.187,0.805,0.246c0.292,0.061,0.579,0.092,0.864,0.092
		c0.467,0,0.817-0.088,1.053-0.266c0.235-0.176,0.354-0.423,0.354-0.738c0-0.208-0.042-0.378-0.125-0.512
		c-0.084-0.132-0.224-0.254-0.418-0.368c-0.197-0.113-0.496-0.24-0.896-0.382c-0.56-0.2-0.959-0.438-1.199-0.711
		c-0.239-0.274-0.359-0.631-0.359-1.073c0-0.462,0.173-0.832,0.522-1.106c0.348-0.273,0.809-0.411,1.383-0.411
		c0.595,0,1.146,0.11,1.647,0.329l-0.218,0.609c-0.497-0.208-0.979-0.313-1.447-0.313c-0.371,0-0.66,0.08-0.866,0.238
		c-0.209,0.159-0.312,0.38-0.312,0.662c0,0.208,0.038,0.379,0.114,0.512c0.077,0.133,0.207,0.255,0.389,0.367
		c0.182,0.11,0.46,0.234,0.835,0.368c0.631,0.223,1.063,0.465,1.301,0.723S116.816,42.702,116.816,43.114z"/>
	<path fill="#2A2A2A" d="M121.396,44.712h-3.351v-6.01h3.351v0.622h-2.65v1.937h2.491v0.616h-2.491v2.212h2.65V44.712z"/>
	<path fill="#2A2A2A" d="M123.428,42.213v2.5h-0.699v-6.011h1.647c0.739,0,1.282,0.142,1.636,0.423
		c0.352,0.282,0.527,0.707,0.527,1.274c0,0.796-0.402,1.333-1.208,1.612l1.632,2.701h-0.826l-1.455-2.5L123.428,42.213
		L123.428,42.213z M123.428,41.612h0.957c0.494,0,0.855-0.098,1.086-0.293c0.23-0.196,0.346-0.489,0.346-0.881
		c0-0.398-0.118-0.685-0.352-0.86c-0.234-0.176-0.611-0.263-1.127-0.263h-0.91V41.612L123.428,41.612z"/>
	<path fill="#2A2A2A" d="M130.576,41.563h2.043v2.923c-0.317,0.102-0.641,0.179-0.971,0.23c-0.328,0.052-0.709,0.079-1.143,0.079
		c-0.91,0-1.617-0.271-2.125-0.813c-0.507-0.542-0.762-1.299-0.762-2.275c0-0.625,0.126-1.172,0.377-1.642
		c0.25-0.47,0.612-0.83,1.084-1.077c0.47-0.248,1.022-0.373,1.656-0.373c0.641,0,1.237,0.118,1.792,0.354l-0.272,0.616
		c-0.541-0.23-1.063-0.345-1.566-0.345c-0.731,0-1.303,0.218-1.713,0.653c-0.412,0.437-0.617,1.042-0.617,1.813
		c0,0.812,0.197,1.427,0.594,1.846s0.979,0.629,1.746,0.629c0.416,0,0.822-0.048,1.221-0.145v-1.85h-1.345L130.576,41.563
		L130.576,41.563z"/>
	<path fill="#2A2A2A" d="M134.063,44.712v-6.01h0.699v6.011L134.063,44.712L134.063,44.712z"/>
	<path fill="#2A2A2A" d="M141.627,41.7c0,0.962-0.243,1.718-0.729,2.27c-0.486,0.551-1.161,0.827-2.028,0.827
		c-0.885,0-1.569-0.271-2.049-0.813c-0.482-0.542-0.723-1.305-0.723-2.292c0-0.979,0.242-1.737,0.725-2.275
		c0.48-0.54,1.166-0.809,2.055-0.809c0.863,0,1.537,0.273,2.023,0.822C141.385,39.978,141.627,40.735,141.627,41.7z M136.838,41.7
		c0,0.814,0.173,1.431,0.52,1.853c0.346,0.42,0.851,0.63,1.512,0.63c0.666,0,1.168-0.21,1.51-0.629
		c0.34-0.419,0.509-1.037,0.509-1.854c0-0.809-0.169-1.421-0.507-1.84c-0.338-0.419-0.84-0.627-1.504-0.627
		c-0.666,0-1.172,0.21-1.52,0.63C137.011,40.284,136.838,40.896,136.838,41.7z"/>
	<path fill="#2A2A2A" d="M145.854,44.712h-0.698v-6.01h3.35v0.622h-2.651v2.2h2.492v0.621h-2.492V44.712L145.854,44.712z"/>
	<path fill="#2A2A2A" d="M152.852,44.712h-3.35v-6.01h3.35v0.622h-2.652v1.937h2.49v0.616h-2.49v2.212h2.652V44.712z"/>
	<path fill="#2A2A2A" d="M154.881,42.213v2.5h-0.698v-6.011h1.648c0.737,0,1.282,0.142,1.636,0.423
		c0.351,0.282,0.528,0.707,0.528,1.274c0,0.796-0.403,1.333-1.209,1.612l1.632,2.701h-0.826l-1.456-2.5L154.881,42.213
		L154.881,42.213z M154.881,41.612h0.958c0.494,0,0.856-0.098,1.086-0.293c0.231-0.196,0.347-0.489,0.347-0.881
		c0-0.398-0.117-0.685-0.353-0.86c-0.233-0.176-0.609-0.263-1.128-0.263h-0.908v2.297H154.881z"/>
	<path fill="#2A2A2A" d="M160.086,42.213v2.5h-0.698v-6.011h1.648c0.737,0,1.281,0.142,1.636,0.423
		c0.352,0.282,0.527,0.707,0.527,1.274c0,0.796-0.403,1.333-1.209,1.612l1.633,2.701h-0.827l-1.456-2.5L160.086,42.213
		L160.086,42.213z M160.086,41.612h0.959c0.492,0,0.855-0.098,1.085-0.293c0.23-0.196,0.346-0.489,0.346-0.881
		c0-0.398-0.117-0.685-0.352-0.86c-0.233-0.176-0.61-0.263-1.129-0.263h-0.907v2.297H160.086z"/>
	<path fill="#2A2A2A" d="M167.942,44.712h-3.35v-6.01h3.35v0.622h-2.65v1.937h2.492v0.616h-2.492v2.212h2.65V44.712z"/>
	<path fill="#2A2A2A" d="M169.975,42.213v2.5h-0.699v-6.011h1.648c0.737,0,1.281,0.142,1.633,0.423
		c0.354,0.282,0.529,0.707,0.529,1.274c0,0.796-0.402,1.333-1.208,1.612l1.633,2.701h-0.827l-1.454-2.5L169.975,42.213
		L169.975,42.213z M169.975,41.612h0.959c0.493,0,0.854-0.098,1.085-0.293c0.229-0.196,0.345-0.489,0.345-0.881
		c0-0.398-0.117-0.685-0.351-0.86c-0.236-0.176-0.611-0.263-1.13-0.263h-0.907L169.975,41.612L169.975,41.612z"/>
</g>
<g enable-background="new    ">
	<path fill="#2A2A2A" d="M119.795,60.933c0,0.793-0.216,1.4-0.646,1.82c-0.432,0.42-1.051,0.63-1.86,0.63h-1.332v-4.809h1.474
		c0.746,0,1.328,0.207,1.742,0.622S119.795,60.19,119.795,60.933z M119.201,60.953c0-0.627-0.156-1.099-0.471-1.417
		c-0.316-0.319-0.782-0.477-1.404-0.477h-0.812v3.841h0.68c0.667,0,1.169-0.163,1.503-0.491
		C119.034,62.079,119.201,61.595,119.201,60.953z"/>
	<path fill="#2A2A2A" d="M120.738,58.802c0-0.125,0.03-0.217,0.092-0.275c0.061-0.059,0.137-0.087,0.23-0.087
		c0.086,0,0.163,0.029,0.227,0.089c0.063,0.059,0.095,0.15,0.095,0.273c0,0.122-0.032,0.214-0.095,0.274
		c-0.063,0.061-0.141,0.09-0.227,0.09c-0.094,0-0.17-0.03-0.23-0.09C120.769,59.017,120.738,58.924,120.738,58.802z M121.33,63.383
		h-0.547v-3.605h0.547V63.383z"/>
	<path fill="#2A2A2A" d="M124.813,62.4c0,0.335-0.123,0.594-0.374,0.776c-0.251,0.182-0.603,0.273-1.052,0.273
		c-0.479,0-0.853-0.076-1.119-0.228v-0.507c0.174,0.088,0.357,0.157,0.559,0.208c0.196,0.05,0.388,0.076,0.571,0.076
		c0.284,0,0.505-0.045,0.658-0.137c0.154-0.091,0.231-0.229,0.231-0.415c0-0.141-0.063-0.261-0.182-0.36
		c-0.123-0.099-0.361-0.218-0.713-0.354c-0.336-0.125-0.574-0.234-0.717-0.327c-0.141-0.093-0.246-0.198-0.314-0.316
		c-0.069-0.119-0.104-0.26-0.104-0.424c0-0.294,0.118-0.525,0.359-0.696c0.239-0.17,0.566-0.255,0.982-0.255
		c0.389,0,0.768,0.079,1.138,0.237l-0.194,0.444c-0.361-0.148-0.688-0.224-0.983-0.224c-0.259,0-0.452,0.04-0.585,0.122
		c-0.133,0.082-0.197,0.193-0.197,0.335c0,0.097,0.025,0.179,0.073,0.247c0.05,0.067,0.13,0.132,0.239,0.194
		c0.109,0.062,0.32,0.15,0.633,0.267c0.428,0.156,0.716,0.313,0.866,0.471C124.738,61.962,124.813,62.16,124.813,62.4z"/>
	<path fill="#2A2A2A" d="M127.225,63.449c-0.534,0-0.955-0.163-1.262-0.487c-0.309-0.325-0.463-0.775-0.463-1.352
		c0-0.581,0.144-1.042,0.43-1.385c0.286-0.341,0.67-0.513,1.152-0.513c0.451,0,0.81,0.149,1.073,0.445
		c0.263,0.297,0.394,0.689,0.394,1.176v0.346h-2.482c0.012,0.423,0.117,0.744,0.321,0.963c0.202,0.219,0.487,0.329,0.856,0.329
		c0.387,0,0.771-0.082,1.15-0.243v0.487c-0.192,0.083-0.374,0.143-0.546,0.18C127.676,63.431,127.468,63.449,127.225,63.449z
		 M127.075,60.17c-0.288,0-0.521,0.095-0.692,0.284c-0.172,0.188-0.274,0.448-0.305,0.782h1.884c0-0.344-0.076-0.608-0.229-0.792
		C127.58,60.261,127.361,60.17,127.075,60.17z"/>
	<path fill="#2A2A2A" d="M131.945,63.383V61.05c0-0.294-0.064-0.512-0.199-0.658c-0.134-0.145-0.344-0.217-0.629-0.217
		c-0.377,0-0.654,0.102-0.829,0.306c-0.176,0.204-0.263,0.541-0.263,1.011v1.891h-0.547v-3.605h0.444l0.089,0.493h0.025
		c0.112-0.177,0.27-0.314,0.471-0.412c0.201-0.098,0.428-0.147,0.674-0.147c0.436,0,0.762,0.104,0.98,0.314
		c0.22,0.21,0.33,0.544,0.33,1.005v2.352H131.945z M131.539,59.295c-0.096,0-0.186-0.021-0.275-0.062
		c-0.09-0.04-0.18-0.085-0.266-0.135c-0.086-0.049-0.17-0.094-0.25-0.135c-0.081-0.04-0.157-0.061-0.231-0.061
		c-0.11,0-0.192,0.033-0.249,0.099c-0.055,0.065-0.1,0.165-0.129,0.299h-0.322c0.028-0.266,0.105-0.473,0.232-0.623
		c0.125-0.151,0.287-0.226,0.486-0.226c0.102,0,0.199,0.021,0.295,0.061c0.094,0.041,0.183,0.085,0.27,0.135
		c0.083,0.049,0.168,0.095,0.245,0.135c0.079,0.04,0.153,0.061,0.224,0.061c0.107,0,0.188-0.032,0.24-0.098s0.096-0.165,0.129-0.301
		h0.326c-0.03,0.266-0.105,0.473-0.229,0.623C131.91,59.22,131.746,59.295,131.539,59.295z"/>
	<path fill="#2A2A2A" d="M135.832,63.383l-0.11-0.513h-0.024c-0.18,0.226-0.361,0.378-0.538,0.459
		c-0.179,0.08-0.402,0.12-0.671,0.12c-0.356,0-0.637-0.093-0.84-0.277c-0.203-0.184-0.304-0.446-0.304-0.786
		c0-0.728,0.581-1.109,1.745-1.144l0.612-0.02v-0.223c0-0.283-0.06-0.492-0.182-0.626c-0.122-0.135-0.316-0.203-0.584-0.203
		c-0.301,0-0.641,0.093-1.021,0.277l-0.167-0.418c0.179-0.097,0.372-0.171,0.583-0.228c0.211-0.056,0.425-0.082,0.639-0.082
		c0.428,0,0.747,0.096,0.954,0.286c0.208,0.19,0.311,0.497,0.311,0.917v2.46H135.832z M134.598,62.999
		c0.34,0,0.606-0.093,0.801-0.279c0.193-0.187,0.291-0.447,0.291-0.783V61.61l-0.547,0.023c-0.434,0.016-0.747,0.083-0.938,0.203
		c-0.191,0.12-0.288,0.305-0.288,0.556c0,0.198,0.061,0.349,0.182,0.451C134.215,62.946,134.383,62.999,134.598,62.999z"/>
	<path fill="#2A2A2A" d="M139.814,62.9h-0.029c-0.253,0.366-0.63,0.549-1.131,0.549c-0.473,0-0.837-0.162-1.1-0.484
		c-0.262-0.322-0.394-0.78-0.394-1.375c0-0.594,0.132-1.056,0.394-1.385c0.264-0.329,0.631-0.493,1.1-0.493
		c0.488,0,0.863,0.178,1.125,0.533h0.042l-0.022-0.26l-0.014-0.253v-1.467h0.547v5.118h-0.444L139.814,62.9z M138.723,62.992
		c0.371,0,0.641-0.101,0.81-0.305c0.167-0.203,0.251-0.529,0.251-0.981v-0.114c0-0.511-0.084-0.876-0.254-1.095
		c-0.17-0.218-0.442-0.327-0.813-0.327c-0.319,0-0.565,0.124-0.737,0.373c-0.17,0.25-0.254,0.601-0.254,1.054
		c0,0.46,0.084,0.809,0.253,1.044C138.146,62.875,138.396,62.992,138.723,62.992z"/>
	<path fill="#2A2A2A" d="M144.599,61.578c0,0.588-0.147,1.047-0.442,1.376c-0.298,0.329-0.706,0.495-1.227,0.495
		c-0.322,0-0.609-0.077-0.859-0.228c-0.25-0.152-0.443-0.369-0.578-0.652c-0.136-0.282-0.203-0.613-0.203-0.993
		c0-0.588,0.146-1.045,0.439-1.373c0.294-0.328,0.703-0.492,1.225-0.492c0.504,0,0.904,0.168,1.201,0.504
		C144.451,60.551,144.599,61.005,144.599,61.578z M141.854,61.578c0,0.46,0.092,0.811,0.275,1.052
		c0.186,0.241,0.455,0.361,0.813,0.361c0.358,0,0.629-0.12,0.814-0.36c0.184-0.24,0.277-0.591,0.277-1.053
		c0-0.458-0.094-0.806-0.277-1.045c-0.186-0.238-0.459-0.356-0.82-0.356c-0.357,0-0.627,0.117-0.81,0.352
		C141.943,60.763,141.854,61.113,141.854,61.578z"/>
	<path fill="#2A2A2A" d="M147.201,59.713c0.162,0,0.305,0.013,0.431,0.039l-0.075,0.507c-0.148-0.033-0.28-0.049-0.395-0.049
		c-0.291,0-0.541,0.118-0.748,0.355c-0.208,0.236-0.311,0.531-0.311,0.884v1.934h-0.547v-3.605h0.451l0.063,0.668h0.025
		c0.135-0.235,0.296-0.416,0.484-0.542C146.768,59.776,146.975,59.713,147.201,59.713z"/>
	<path fill="#2A2A2A" d="M153.769,58.575v3.111c0,0.548-0.165,0.979-0.496,1.293c-0.332,0.313-0.787,0.47-1.364,0.47
		c-0.579,0-1.027-0.159-1.344-0.474c-0.316-0.316-0.475-0.75-0.475-1.302v-3.098h0.559v3.138c0,0.4,0.109,0.709,0.329,0.923
		c0.218,0.215,0.542,0.323,0.966,0.323c0.406,0,0.719-0.108,0.938-0.325c0.22-0.216,0.328-0.525,0.328-0.929v-3.131L153.769,58.575
		L153.769,58.575z"/>
	<path fill="#2A2A2A" d="M158.241,63.383h-0.634l-1.293-2.115l-1.315,2.115h-0.592l1.598-2.513l-1.488-2.296h0.617l1.194,1.905
		l1.202-1.905h0.596l-1.489,2.276L158.241,63.383z"/>
	<path fill="#2A2A2A" d="M162.923,62.4c0,0.335-0.126,0.594-0.377,0.776c-0.249,0.182-0.602,0.273-1.052,0.273
		c-0.478,0-0.851-0.076-1.119-0.228v-0.507c0.174,0.088,0.36,0.157,0.557,0.208c0.2,0.05,0.392,0.076,0.575,0.076
		c0.285,0,0.504-0.045,0.657-0.137c0.153-0.091,0.23-0.229,0.23-0.415c0-0.141-0.061-0.261-0.182-0.36
		c-0.122-0.099-0.36-0.218-0.713-0.354c-0.336-0.125-0.574-0.234-0.715-0.327c-0.142-0.093-0.246-0.198-0.314-0.316
		c-0.07-0.119-0.104-0.26-0.104-0.424c0-0.294,0.119-0.525,0.358-0.696c0.238-0.17,0.566-0.255,0.982-0.255
		c0.39,0,0.769,0.079,1.138,0.237l-0.192,0.444c-0.362-0.148-0.69-0.224-0.985-0.224c-0.258,0-0.452,0.04-0.585,0.122
		c-0.13,0.082-0.197,0.193-0.197,0.335c0,0.097,0.025,0.179,0.075,0.247c0.049,0.067,0.129,0.132,0.238,0.194
		c0.11,0.062,0.319,0.15,0.632,0.267c0.428,0.156,0.716,0.313,0.867,0.471C162.848,61.962,162.923,62.16,162.923,62.4z"/>
	<path fill="#2A2A2A" d="M165.333,63.449c-0.532,0-0.954-0.163-1.26-0.487c-0.31-0.325-0.463-0.775-0.463-1.352
		c0-0.581,0.144-1.042,0.429-1.385c0.286-0.341,0.671-0.513,1.153-0.513c0.451,0,0.81,0.149,1.071,0.445
		c0.265,0.297,0.395,0.689,0.395,1.176v0.346h-2.481c0.011,0.423,0.116,0.744,0.321,0.963c0.201,0.219,0.485,0.329,0.854,0.329
		c0.389,0,0.773-0.082,1.152-0.243v0.487c-0.192,0.083-0.376,0.143-0.547,0.18C165.784,63.431,165.577,63.449,165.333,63.449z
		 M165.185,60.17c-0.289,0-0.521,0.095-0.691,0.284c-0.173,0.188-0.274,0.448-0.306,0.782h1.885c0-0.344-0.078-0.608-0.23-0.792
		C165.69,60.261,165.47,60.17,165.185,60.17z"/>
	<path fill="#2A2A2A" d="M170.055,63.383V61.05c0-0.294-0.065-0.512-0.199-0.658c-0.135-0.145-0.344-0.217-0.629-0.217
		c-0.376,0-0.654,0.102-0.83,0.306c-0.174,0.204-0.262,0.541-0.262,1.011v1.891h-0.546v-3.605h0.444l0.088,0.493h0.025
		c0.113-0.177,0.27-0.314,0.472-0.412c0.201-0.098,0.426-0.147,0.672-0.147c0.436,0,0.763,0.104,0.982,0.314
		c0.218,0.21,0.328,0.544,0.328,1.005v2.352H170.055z"/>
	<path fill="#2A2A2A" d="M171.677,58.802c0-0.125,0.031-0.217,0.092-0.275c0.062-0.059,0.139-0.087,0.23-0.087
		c0.088,0,0.164,0.029,0.228,0.089s0.095,0.15,0.095,0.273c0,0.122-0.031,0.214-0.095,0.274c-0.063,0.061-0.14,0.09-0.228,0.09
		c-0.092,0-0.169-0.03-0.23-0.09C171.708,59.017,171.677,58.924,171.677,58.802z M172.269,63.383h-0.546v-3.605h0.546V63.383z"/>
	<path fill="#2A2A2A" d="M176.538,61.578c0,0.588-0.146,1.047-0.443,1.376c-0.296,0.329-0.704,0.495-1.227,0.495
		c-0.322,0-0.609-0.077-0.858-0.228c-0.249-0.152-0.443-0.369-0.579-0.652c-0.135-0.282-0.203-0.613-0.203-0.993
		c0-0.588,0.146-1.045,0.44-1.373c0.295-0.328,0.702-0.492,1.225-0.492c0.503,0,0.905,0.168,1.202,0.504
		C176.388,60.551,176.538,61.005,176.538,61.578z M173.792,61.578c0,0.46,0.093,0.811,0.275,1.052
		c0.186,0.241,0.455,0.361,0.814,0.361c0.356,0,0.629-0.12,0.813-0.36c0.186-0.24,0.278-0.591,0.278-1.053
		c0-0.458-0.093-0.806-0.278-1.045c-0.184-0.238-0.457-0.356-0.82-0.356c-0.357,0-0.627,0.117-0.809,0.352
		C173.885,60.763,173.792,61.113,173.792,61.578z"/>
	<path fill="#2A2A2A" d="M179.141,59.713c0.159,0,0.303,0.013,0.431,0.039l-0.076,0.507c-0.149-0.033-0.28-0.049-0.396-0.049
		c-0.291,0-0.541,0.118-0.748,0.355c-0.208,0.236-0.31,0.531-0.31,0.884v1.934h-0.546v-3.605h0.45l0.063,0.668h0.027
		c0.133-0.235,0.294-0.416,0.481-0.542C178.705,59.776,178.913,59.713,179.141,59.713z"/>
</g>
<g enable-background="new    ">
	<path fill="#2A2A2A" d="M116.739,68.909h1.359c0.638,0,1.099,0.095,1.385,0.286c0.286,0.19,0.427,0.492,0.427,0.904
		c0,0.286-0.079,0.521-0.237,0.706c-0.159,0.185-0.392,0.305-0.696,0.36v0.033c0.73,0.125,1.095,0.509,1.095,1.152
		c0,0.429-0.146,0.765-0.437,1.006c-0.289,0.241-0.696,0.362-1.219,0.362h-1.678L116.739,68.909L116.739,68.909z M117.299,70.968
		h0.922c0.395,0,0.68-0.062,0.852-0.186c0.174-0.125,0.26-0.333,0.26-0.627c0-0.27-0.096-0.464-0.289-0.583s-0.5-0.179-0.921-0.179
		h-0.823V70.968z M117.299,71.441v1.799h1.003c0.388,0,0.681-0.074,0.878-0.225c0.195-0.151,0.295-0.386,0.295-0.706
		c0-0.298-0.102-0.518-0.303-0.658c-0.201-0.14-0.506-0.21-0.916-0.21H117.299z"/>
	<path fill="#2A2A2A" d="M120.977,69.136c0-0.125,0.031-0.217,0.092-0.276c0.062-0.058,0.138-0.087,0.23-0.087
		c0.088,0,0.164,0.03,0.227,0.089c0.063,0.059,0.096,0.15,0.096,0.272c0,0.123-0.033,0.214-0.096,0.275
		c-0.063,0.06-0.139,0.09-0.227,0.09c-0.093,0-0.169-0.03-0.23-0.09C121.008,69.35,120.977,69.258,120.977,69.136z M121.568,73.718
		h-0.546v-3.604h0.546V73.718z"/>
	<path fill="#2A2A2A" d="M123.271,73.718h-0.544V68.6h0.544V73.718z"/>
	<path fill="#2A2A2A" d="M126.106,70.053c0.474,0,0.841,0.163,1.104,0.486c0.262,0.323,0.394,0.781,0.394,1.373
		c0,0.592-0.133,1.052-0.396,1.379c-0.266,0.328-0.633,0.492-1.101,0.492c-0.235,0-0.448-0.044-0.642-0.13
		c-0.196-0.086-0.357-0.22-0.489-0.4h-0.04l-0.114,0.463h-0.39v-5.118h0.544v1.243c0,0.279-0.01,0.529-0.025,0.75h0.025
		C125.23,70.233,125.606,70.053,126.106,70.053z M126.029,70.511c-0.373,0-0.642,0.106-0.806,0.321
		c-0.166,0.214-0.247,0.574-0.247,1.081s0.086,0.869,0.254,1.087s0.439,0.327,0.813,0.327c0.336,0,0.584-0.123,0.75-0.367
		c0.163-0.245,0.246-0.596,0.246-1.054c0-0.47-0.083-0.818-0.246-1.05C126.627,70.625,126.373,70.511,126.029,70.511z"/>
	<path fill="#2A2A2A" d="M130.774,73.718l-0.108-0.514h-0.027c-0.18,0.227-0.359,0.378-0.537,0.459
		c-0.18,0.08-0.402,0.12-0.671,0.12c-0.357,0-0.638-0.092-0.839-0.276c-0.204-0.184-0.305-0.446-0.305-0.786
		c0-0.728,0.582-1.109,1.746-1.144l0.611-0.02v-0.224c0-0.283-0.06-0.492-0.182-0.627c-0.122-0.134-0.316-0.202-0.584-0.202
		c-0.301,0-0.641,0.092-1.02,0.276l-0.168-0.418c0.178-0.097,0.372-0.172,0.584-0.226c0.211-0.055,0.424-0.083,0.637-0.083
		c0.43,0,0.746,0.096,0.955,0.287c0.208,0.19,0.311,0.496,0.311,0.917v2.46H130.774z M129.541,73.332c0.339,0,0.605-0.092,0.8-0.279
		s0.292-0.447,0.292-0.783v-0.325l-0.547,0.022c-0.434,0.016-0.747,0.083-0.938,0.203c-0.19,0.119-0.288,0.305-0.288,0.557
		c0,0.197,0.06,0.347,0.18,0.451C129.158,73.281,129.327,73.332,129.541,73.332z"/>
	<path fill="#2A2A2A" d="M135.414,71.911c0,0.588-0.147,1.046-0.443,1.376c-0.297,0.33-0.705,0.495-1.227,0.495
		c-0.321,0-0.607-0.076-0.857-0.227c-0.252-0.152-0.443-0.369-0.58-0.652c-0.135-0.284-0.203-0.615-0.203-0.994
		c0-0.588,0.146-1.044,0.441-1.373c0.293-0.328,0.701-0.492,1.225-0.492c0.504,0,0.904,0.168,1.201,0.504
		C135.266,70.885,135.414,71.338,135.414,71.911z M132.668,71.911c0,0.46,0.092,0.812,0.277,1.053
		c0.184,0.241,0.455,0.361,0.813,0.361s0.627-0.12,0.813-0.36c0.184-0.24,0.277-0.591,0.277-1.054c0-0.458-0.094-0.807-0.277-1.044
		c-0.187-0.237-0.46-0.357-0.821-0.357c-0.357,0-0.627,0.118-0.808,0.352C132.76,71.096,132.668,71.447,132.668,71.911z"/>
</g>
<text transform="matrix(1 0 0 1 82.6865 77.0991)" fill="#84B7DF" font-family="'MyriadPro-Regular'" font-size="6.1508">Contactar</text>
<path fill="#2A2A2A" d="M93.13,61.455c-0.437,0.208-2.597,0.252-2.867-0.447C91.138,60.458,92.606,60.935,93.13,61.455z"/>
<path fill="#2A2A2A" d="M98.647,61.455c-1.161-0.134-1.896,0.165-2.87,0.223C95.846,60.817,98.534,60.18,98.647,61.455z"/>
<path fill="#2A2A2A" d="M91.365,62.347c-0.036-0.484,0.783-0.101,1.104-0.223c0.093,0.468-0.15,0.59-0.221,0.894
	C91.541,63.214,91.791,62.438,91.365,62.347z"/>
<path fill="#2A2A2A" d="M96.441,62.125c0.369,0,0.736,0,1.104,0c-0.26,0.331-0.191,0.997-0.882,0.894
	C96.489,62.818,96.424,62.514,96.441,62.125z"/>
<polygon fill="#EDEEF2" points="93.479,65.097 94.663,64.962 93.967,63.129 "/>
<ellipse fill="#EDEEF2" cx="99.418" cy="63.086" rx="0.771" ry="0.932"/>
<path fill="#2A2A2A" d="M96.01,65.862c-0.206,0.427-0.909,0.744-1.747,0.744c-0.859,0-1.578-0.332-1.761-0.776
	c-0.092,0.019-0.144,0.067-0.144,0.162c0,0.386,0.832,1.4,1.857,1.4c1.024,0,1.855-1.015,1.855-1.4
	C96.07,65.93,96.048,65.891,96.01,65.862z"/>
<polygon fill="#84B7DF" points="118.828,64.598 116.459,63.321 114.135,64.684 114.533,61.88 112.596,59.935 115.214,59.478 
	116.34,56.914 117.561,59.436 120.189,59.795 118.328,61.811 "/>
<polygon fill="#84B7DF" points="128.67,64.598 126.3,63.321 123.977,64.684 124.373,61.88 122.439,59.935 125.055,59.478 
	126.181,56.914 127.4,59.436 130.031,59.795 128.17,61.811 "/>
<polygon fill="#84B7DF" points="138.512,64.598 136.141,63.321 133.818,64.684 134.217,61.88 132.281,59.935 134.896,59.478 
	136.021,56.914 137.242,59.436 139.873,59.795 138.012,61.811 "/>
<polygon fill="none" stroke="#84B7DF" stroke-width="0.1538" stroke-miterlimit="10" points="147.121,64.598 144.753,63.321 
	142.432,64.684 142.825,61.88 140.893,59.935 143.507,59.478 144.633,56.914 145.855,59.436 148.486,59.795 146.623,61.811 "/>
<g>
	<g>
		<path fill="#DFE4E7" stroke="#FFFFFF" stroke-miterlimit="10" d="M153.73,124.689c0,1.314-1.066,2.377-2.379,2.377H19.708
			c-1.313,0-2.377-1.064-2.377-2.377V59.562c0-1.313,1.065-2.377,2.377-2.377h131.643c1.314,0,2.379,1.065,2.379,2.377V124.689
			L153.73,124.689z"/>
		<path fill="#DFE4E7" stroke="#FFFFFF" stroke-miterlimit="10" d="M153.311,124.268c0,1.314-1.066,2.377-2.38,2.377H19.288
			c-1.314,0-2.378-1.064-2.378-2.377V59.14c0-1.313,1.065-2.377,2.378-2.377h83.608h48.034c1.314,0,2.377,1.065,2.377,2.377v65.127
			H153.311z"/>
	</g>
</g>
<rect x="22.804" y="68.55" fill="#FFFFFF" stroke="#2A2A2A" stroke-width="0.842" stroke-miterlimit="10" width="28.626" height="29.469"/>
<g enable-background="new    ">
	<path fill="#2A2A2A" d="M59.664,79.449c-0.309,0-0.553-0.045-0.73-0.134v-0.715c0.234,0.065,0.477,0.099,0.73,0.099
		c0.326,0,0.573-0.099,0.742-0.296c0.17-0.197,0.254-0.481,0.254-0.853v-7.212h0.838v7.143c0,0.625-0.157,1.109-0.474,1.454
		C60.71,79.277,60.255,79.449,59.664,79.449z"/>
	<path fill="#2A2A2A" d="M67.946,77.549l-0.897-2.293h-2.89l-0.888,2.293h-0.849l2.851-7.242h0.706l2.836,7.242H67.946z
		 M66.788,74.501l-0.839-2.235c-0.108-0.283-0.22-0.63-0.335-1.041c-0.072,0.315-0.176,0.663-0.311,1.041l-0.849,2.235H66.788z"/>
	<path fill="#2A2A2A" d="M73.927,70.338h0.902l-2.6,7.211H71.4l-2.585-7.211h0.888l1.658,4.666c0.191,0.536,0.342,1.057,0.455,1.564
		c0.118-0.533,0.272-1.063,0.463-1.593L73.927,70.338z"/>
	<path fill="#2A2A2A" d="M75.821,77.549v-7.211h0.838v7.211H75.821z"/>
	<path fill="#2A2A2A" d="M82.658,77.549h-4.021v-7.211h4.021v0.745h-3.182v2.324h2.99v0.739h-2.99V76.8h3.182V77.549z"/>
	<path fill="#2A2A2A" d="M85.096,74.55v2.999h-0.839v-7.211h1.978c0.884,0,1.539,0.169,1.96,0.508
		c0.423,0.339,0.635,0.849,0.635,1.529c0,0.954-0.484,1.598-1.451,1.934l1.959,3.241h-0.992L86.6,74.55H85.096L85.096,74.55z
		 M85.096,73.83h1.149c0.592,0,1.026-0.118,1.302-0.353c0.277-0.235,0.414-0.588,0.414-1.058c0-0.476-0.14-0.82-0.422-1.031
		c-0.282-0.211-0.733-0.316-1.354-0.316h-1.089V73.83z"/>
	<path fill="#2A2A2A" d="M99.388,73.934c0,1.154-0.292,2.063-0.876,2.724c-0.584,0.661-1.396,0.992-2.435,0.992
		c-1.062,0-1.882-0.325-2.46-0.975c-0.577-0.649-0.866-1.567-0.866-2.75c0-1.174,0.29-2.084,0.868-2.73
		c0.579-0.646,1.402-0.969,2.467-0.969c1.036,0,1.846,0.329,2.427,0.986C99.096,71.869,99.388,72.776,99.388,73.934z M93.64,73.934
		c0,0.978,0.208,1.717,0.625,2.223c0.416,0.505,1.02,0.757,1.813,0.757c0.8,0,1.403-0.251,1.811-0.754
		c0.408-0.503,0.612-1.244,0.612-2.225c0-0.97-0.203-1.707-0.609-2.208c-0.407-0.502-1.007-0.752-1.804-0.752
		c-0.799,0-1.406,0.253-1.822,0.757C93.848,72.235,93.64,72.97,93.64,73.934z"/>
	<path fill="#2A2A2A" d="M101.834,74.55v2.999h-0.838v-7.211h1.978c0.885,0,1.539,0.169,1.961,0.508
		c0.423,0.339,0.634,0.849,0.634,1.529c0,0.954-0.483,1.598-1.45,1.934l1.958,3.241h-0.991l-1.748-2.999H101.834L101.834,74.55z
		 M101.834,73.83h1.15c0.593,0,1.026-0.118,1.302-0.353c0.278-0.235,0.416-0.588,0.416-1.058c0-0.476-0.142-0.82-0.423-1.031
		c-0.281-0.211-0.732-0.316-1.354-0.316h-1.09L101.834,73.83L101.834,73.83z"/>
	<path fill="#2A2A2A" d="M109.461,77.549h-0.838v-6.468h-2.284v-0.745h5.409v0.745h-2.285L109.461,77.549L109.461,77.549z"/>
	<path fill="#2A2A2A" d="M112.831,77.549v-7.211h0.837v7.211H112.831z"/>
	<path fill="#2A2A2A" d="M120.02,77.549h-4.959v-0.656l3.829-5.801h-3.71v-0.754h4.73v0.655l-3.828,5.797h3.938V77.549
		L120.02,77.549z"/>
</g>
<g enable-background="new    ">
	<path fill="#2A2A2A" d="M65.022,97.873c0,0.993-0.269,1.75-0.808,2.275c-0.539,0.525-1.313,0.788-2.325,0.788h-1.665v-6.011h1.842
		c0.935,0,1.661,0.26,2.179,0.777C64.763,96.22,65.022,96.944,65.022,97.873z M64.282,97.897c0-0.784-0.197-1.375-0.589-1.772
		c-0.394-0.397-0.978-0.596-1.754-0.596h-1.016v4.802h0.851c0.834,0,1.459-0.205,1.879-0.614
		C64.073,99.307,64.282,98.702,64.282,97.897z"/>
	<path fill="#2A2A2A" d="M66.202,95.208c0-0.155,0.038-0.271,0.114-0.342c0.077-0.074,0.173-0.11,0.288-0.11
		c0.11,0,0.204,0.037,0.284,0.111c0.08,0.075,0.12,0.188,0.12,0.341c0,0.154-0.04,0.269-0.12,0.343
		c-0.08,0.076-0.174,0.114-0.284,0.114c-0.115,0-0.211-0.038-0.288-0.114C66.24,95.477,66.202,95.363,66.202,95.208z
		 M66.942,100.936H66.26V96.43h0.682V100.936z"/>
	<path fill="#2A2A2A" d="M71.296,99.706c0,0.42-0.156,0.743-0.469,0.971c-0.313,0.228-0.752,0.341-1.315,0.341
		c-0.597,0-1.063-0.095-1.398-0.284v-0.633c0.216,0.109,0.45,0.196,0.697,0.258c0.248,0.063,0.487,0.096,0.718,0.096
		c0.355,0,0.63-0.057,0.822-0.17c0.192-0.115,0.288-0.288,0.288-0.521c0-0.175-0.076-0.325-0.228-0.449
		c-0.152-0.125-0.45-0.272-0.891-0.442c-0.419-0.156-0.717-0.292-0.894-0.41c-0.176-0.116-0.308-0.248-0.394-0.396
		c-0.087-0.148-0.129-0.325-0.129-0.53c0-0.368,0.148-0.658,0.448-0.869c0.299-0.213,0.708-0.319,1.229-0.319
		c0.485,0,0.959,0.099,1.422,0.295L70.959,97.2c-0.453-0.187-0.863-0.28-1.229-0.28c-0.324,0-0.568,0.051-0.732,0.152
		s-0.247,0.241-0.247,0.419c0,0.121,0.032,0.223,0.093,0.309c0.061,0.084,0.162,0.166,0.298,0.243
		c0.137,0.076,0.401,0.187,0.79,0.333c0.535,0.196,0.896,0.391,1.083,0.588C71.202,99.16,71.296,99.408,71.296,99.706z"/>
	<path fill="#2A2A2A" d="M74.309,101.018c-0.666,0-1.191-0.204-1.576-0.609c-0.386-0.405-0.579-0.968-0.579-1.689
		c0-0.726,0.179-1.304,0.537-1.731s0.839-0.641,1.441-0.641c0.564,0,1.012,0.185,1.34,0.557c0.329,0.371,0.493,0.861,0.493,1.47
		v0.432h-3.104c0.014,0.529,0.147,0.931,0.4,1.205s0.61,0.411,1.072,0.411c0.485,0,0.964-0.101,1.438-0.304v0.608
		c-0.242,0.104-0.47,0.178-0.685,0.224C74.874,100.995,74.614,101.018,74.309,101.018z M74.124,96.919
		c-0.361,0-0.649,0.118-0.865,0.354c-0.215,0.236-0.342,0.562-0.381,0.978h2.356c0-0.429-0.096-0.759-0.289-0.988
		C74.754,97.033,74.481,96.919,74.124,96.919z"/>
	<path fill="#2A2A2A" d="M80.213,100.936V98.02c0-0.367-0.083-0.641-0.251-0.821c-0.167-0.181-0.429-0.272-0.785-0.272
		c-0.471,0-0.817,0.128-1.036,0.383c-0.219,0.254-0.329,0.676-0.329,1.262v2.364H77.13V96.43h0.556l0.111,0.616h0.033
		c0.139-0.222,0.335-0.394,0.588-0.516c0.251-0.122,0.533-0.182,0.843-0.182c0.543,0,0.951,0.131,1.225,0.392
		c0.275,0.262,0.412,0.68,0.412,1.256v2.94H80.213z M79.704,95.826c-0.118,0-0.233-0.026-0.345-0.077
		c-0.112-0.05-0.223-0.107-0.331-0.168c-0.108-0.063-0.213-0.119-0.312-0.169c-0.1-0.051-0.197-0.076-0.291-0.076
		c-0.137,0-0.24,0.041-0.31,0.123c-0.07,0.083-0.124,0.207-0.163,0.375h-0.403c0.035-0.331,0.132-0.591,0.29-0.778
		c0.158-0.188,0.36-0.282,0.61-0.282c0.126,0,0.248,0.026,0.366,0.077c0.117,0.05,0.229,0.107,0.337,0.168
		c0.106,0.063,0.21,0.119,0.309,0.17c0.099,0.05,0.191,0.076,0.279,0.076c0.134,0,0.234-0.041,0.3-0.122
		c0.066-0.081,0.119-0.205,0.161-0.375h0.407c-0.036,0.332-0.131,0.591-0.285,0.779C80.167,95.731,79.961,95.826,79.704,95.826z"/>
	<path fill="#2A2A2A" d="M85.068,100.936l-0.136-0.642H84.9c-0.225,0.283-0.45,0.474-0.672,0.574c-0.223,0.1-0.502,0.15-0.836,0.15
		c-0.447,0-0.797-0.115-1.05-0.345s-0.38-0.558-0.38-0.983c0-0.91,0.728-1.387,2.183-1.43l0.765-0.025v-0.279
		c0-0.354-0.076-0.614-0.228-0.784c-0.152-0.167-0.396-0.252-0.729-0.252c-0.375,0-0.801,0.115-1.274,0.345l-0.209-0.522
		c0.222-0.12,0.465-0.216,0.729-0.283c0.264-0.069,0.53-0.104,0.796-0.104c0.537,0,0.936,0.119,1.195,0.357
		c0.258,0.239,0.389,0.622,0.389,1.147v3.075L85.068,100.936L85.068,100.936z M83.526,100.455c0.425,0,0.758-0.117,1-0.35
		c0.244-0.231,0.364-0.56,0.364-0.979v-0.407l-0.682,0.029c-0.542,0.019-0.934,0.103-1.173,0.253c-0.24,0.148-0.36,0.38-0.36,0.696
		c0,0.247,0.075,0.434,0.224,0.563C83.049,100.39,83.258,100.455,83.526,100.455z"/>
	<path fill="#2A2A2A" d="M90.047,100.332h-0.037c-0.316,0.458-0.787,0.687-1.414,0.687c-0.589,0-1.048-0.202-1.375-0.604
		c-0.328-0.403-0.491-0.977-0.491-1.719s0.164-1.32,0.493-1.731c0.329-0.411,0.786-0.616,1.373-0.616c0.61,0,1.08,0.221,1.406,0.666
		h0.053l-0.029-0.325l-0.016-0.317v-1.833h0.683v6.397h-0.555L90.047,100.332z M88.682,100.446c0.466,0,0.804-0.126,1.013-0.38
		c0.21-0.253,0.314-0.662,0.314-1.227v-0.144c0-0.639-0.105-1.094-0.318-1.368c-0.212-0.272-0.552-0.409-1.017-0.409
		c-0.4,0-0.707,0.155-0.92,0.467c-0.212,0.311-0.318,0.75-0.318,1.318c0,0.575,0.106,1.01,0.317,1.303
		C87.964,100.3,88.273,100.446,88.682,100.446z"/>
	<path fill="#2A2A2A" d="M96.029,98.678c0,0.734-0.185,1.309-0.555,1.721c-0.371,0.412-0.881,0.619-1.534,0.619
		c-0.403,0-0.761-0.095-1.073-0.284c-0.313-0.188-0.554-0.46-0.723-0.814c-0.17-0.354-0.255-0.767-0.255-1.241
		c0-0.735,0.184-1.306,0.551-1.715c0.367-0.411,0.876-0.615,1.529-0.615c0.63,0,1.131,0.21,1.503,0.629
		C95.842,97.396,96.029,97.963,96.029,98.678z M92.596,98.678c0,0.576,0.115,1.013,0.345,1.315c0.23,0.301,0.568,0.453,1.015,0.453
		c0.447,0,0.786-0.15,1.018-0.449c0.231-0.301,0.347-0.741,0.347-1.319c0-0.573-0.116-1.008-0.347-1.304
		c-0.231-0.297-0.573-0.447-1.026-0.447c-0.447,0-0.784,0.147-1.012,0.44C92.709,97.661,92.596,98.098,92.596,98.678z"/>
	<path fill="#2A2A2A" d="M99.28,96.348c0.2,0,0.379,0.017,0.539,0.049l-0.095,0.633c-0.186-0.041-0.35-0.062-0.493-0.062
		c-0.365,0-0.677,0.148-0.936,0.444c-0.259,0.295-0.389,0.665-0.389,1.106v2.417h-0.682V96.43h0.563l0.079,0.834h0.033
		c0.167-0.293,0.369-0.52,0.604-0.678C98.739,96.427,98.998,96.348,99.28,96.348z"/>
	<path fill="#2A2A2A" d="M107.491,94.925v3.889c0,0.686-0.208,1.223-0.622,1.616c-0.413,0.392-0.983,0.588-1.706,0.588
		c-0.725,0-1.284-0.197-1.679-0.592c-0.398-0.395-0.595-0.937-0.595-1.628v-3.872h0.698v3.921c0,0.502,0.138,0.886,0.411,1.155
		c0.274,0.269,0.677,0.403,1.208,0.403c0.508,0,0.899-0.134,1.172-0.405c0.274-0.269,0.411-0.656,0.411-1.161v-3.914L107.491,94.925
		L107.491,94.925z"/>
	<path fill="#2A2A2A" d="M113.082,100.936h-0.793l-1.616-2.644l-1.646,2.644h-0.739l1.997-3.141l-1.863-2.87h0.774l1.491,2.38
		l1.505-2.38h0.745l-1.862,2.845L113.082,100.936z"/>
	<path fill="#2A2A2A" d="M118.933,99.706c0,0.42-0.155,0.743-0.468,0.971c-0.314,0.228-0.752,0.341-1.318,0.341
		c-0.596,0-1.061-0.095-1.396-0.284v-0.633c0.216,0.109,0.448,0.196,0.696,0.258c0.248,0.064,0.487,0.096,0.717,0.096
		c0.355,0,0.631-0.057,0.822-0.17c0.191-0.115,0.289-0.288,0.289-0.521c0-0.175-0.076-0.325-0.229-0.449
		c-0.152-0.125-0.449-0.272-0.891-0.442c-0.42-0.156-0.719-0.292-0.895-0.41c-0.178-0.116-0.309-0.248-0.395-0.396
		c-0.088-0.148-0.131-0.325-0.131-0.53c0-0.368,0.15-0.658,0.449-0.869c0.298-0.213,0.709-0.319,1.229-0.319
		c0.485,0,0.961,0.099,1.423,0.295l-0.243,0.556c-0.453-0.187-0.863-0.28-1.229-0.28c-0.324,0-0.568,0.051-0.732,0.152
		c-0.165,0.101-0.247,0.241-0.247,0.419c0,0.121,0.03,0.223,0.092,0.309c0.063,0.084,0.161,0.166,0.298,0.243
		c0.139,0.076,0.402,0.187,0.791,0.333c0.535,0.196,0.896,0.391,1.082,0.588C118.838,99.16,118.933,99.408,118.933,99.706z"/>
	<path fill="#2A2A2A" d="M121.945,101.018c-0.666,0-1.192-0.204-1.578-0.609c-0.383-0.405-0.576-0.968-0.576-1.689
		c0-0.726,0.18-1.304,0.537-1.731s0.838-0.641,1.441-0.641c0.563,0,1.01,0.185,1.339,0.557c0.329,0.371,0.493,0.861,0.493,1.47
		v0.432h-3.104c0.014,0.529,0.148,0.931,0.402,1.205s0.609,0.411,1.07,0.411c0.484,0,0.964-0.101,1.439-0.304v0.608
		c-0.242,0.104-0.471,0.178-0.685,0.224C122.51,100.995,122.25,101.018,121.945,101.018z M121.761,96.919
		c-0.361,0-0.65,0.118-0.865,0.354c-0.216,0.236-0.341,0.562-0.38,0.978h2.355c0-0.429-0.096-0.759-0.287-0.988
		C122.392,97.033,122.116,96.919,121.761,96.919z"/>
	<path fill="#2A2A2A" d="M127.849,100.936V98.02c0-0.367-0.082-0.641-0.249-0.821c-0.168-0.181-0.43-0.272-0.787-0.272
		c-0.471,0-0.816,0.128-1.035,0.383s-0.328,0.676-0.328,1.262v2.364h-0.684V96.43h0.556l0.11,0.616h0.034
		c0.14-0.222,0.335-0.394,0.589-0.516c0.25-0.122,0.531-0.182,0.842-0.182c0.541,0,0.951,0.131,1.226,0.392
		c0.272,0.262,0.411,0.68,0.411,1.256v2.94H127.849z"/>
	<path fill="#2A2A2A" d="M129.876,95.208c0-0.155,0.04-0.271,0.115-0.342c0.076-0.074,0.173-0.11,0.286-0.11
		c0.111,0,0.205,0.037,0.285,0.111c0.08,0.075,0.119,0.188,0.119,0.341c0,0.154-0.041,0.269-0.119,0.343
		c-0.08,0.076-0.175,0.114-0.285,0.114c-0.113,0-0.211-0.038-0.286-0.114C129.916,95.477,129.876,95.363,129.876,95.208z
		 M130.616,100.936h-0.683V96.43h0.683V100.936z"/>
	<path fill="#2A2A2A" d="M135.953,98.678c0,0.734-0.186,1.309-0.555,1.721c-0.371,0.412-0.882,0.619-1.535,0.619
		c-0.402,0-0.76-0.095-1.071-0.284c-0.312-0.188-0.554-0.46-0.725-0.814c-0.17-0.354-0.255-0.767-0.255-1.241
		c0-0.735,0.184-1.306,0.553-1.715c0.367-0.411,0.875-0.615,1.527-0.615c0.632,0,1.132,0.21,1.504,0.629
		C135.766,97.396,135.953,97.963,135.953,98.678z M132.52,98.678c0,0.576,0.115,1.013,0.346,1.315
		c0.23,0.301,0.568,0.453,1.016,0.453c0.445,0,0.786-0.15,1.016-0.449c0.232-0.301,0.35-0.741,0.35-1.319
		c0-0.573-0.117-1.008-0.35-1.304c-0.229-0.297-0.572-0.447-1.025-0.447c-0.445,0-0.783,0.147-1.01,0.44
		C132.633,97.661,132.52,98.098,132.52,98.678z"/>
	<path fill="#2A2A2A" d="M139.205,96.348c0.199,0,0.38,0.017,0.538,0.049l-0.095,0.633c-0.186-0.041-0.352-0.062-0.493-0.062
		c-0.364,0-0.675,0.148-0.936,0.444c-0.259,0.295-0.388,0.665-0.388,1.106v2.417h-0.683V96.43h0.563l0.078,0.834h0.033
		c0.168-0.293,0.368-0.52,0.604-0.678S138.922,96.348,139.205,96.348z"/>
</g>
<g enable-background="new    ">
	<path fill="#2A2A2A" d="M60.225,107.326h1.698c0.797,0,1.374,0.12,1.73,0.357c0.357,0.239,0.535,0.616,0.535,1.131
		c0,0.357-0.099,0.651-0.298,0.882c-0.199,0.232-0.488,0.382-0.869,0.45v0.042c0.913,0.155,1.369,0.636,1.369,1.438
		c0,0.538-0.182,0.956-0.545,1.259c-0.363,0.303-0.87,0.452-1.523,0.452h-2.096v-6.011H60.225z M60.923,109.899h1.151
		c0.494,0,0.849-0.077,1.065-0.231c0.216-0.155,0.325-0.415,0.325-0.784c0-0.336-0.12-0.579-0.362-0.729
		c-0.241-0.15-0.625-0.225-1.15-0.225h-1.029V109.899z M60.923,110.492v2.248h1.254c0.484,0,0.85-0.094,1.096-0.282
		c0.245-0.187,0.368-0.48,0.368-0.88c0-0.373-0.125-0.648-0.376-0.823c-0.251-0.175-0.632-0.263-1.145-0.263H60.923z"/>
	<path fill="#2A2A2A" d="M65.519,107.609c0-0.155,0.039-0.271,0.116-0.343c0.077-0.073,0.173-0.109,0.288-0.109
		c0.11,0,0.204,0.037,0.284,0.111c0.08,0.075,0.119,0.188,0.119,0.341c0,0.154-0.04,0.269-0.119,0.344
		c-0.08,0.076-0.174,0.113-0.284,0.113c-0.115,0-0.21-0.037-0.288-0.113C65.558,107.878,65.519,107.764,65.519,107.609z
		 M66.26,113.337h-0.683v-4.506h0.683V113.337z"/>
	<path fill="#2A2A2A" d="M68.39,113.337h-0.683v-6.397h0.683V113.337z"/>
	<path fill="#2A2A2A" d="M71.934,108.756c0.592,0,1.052,0.203,1.379,0.607c0.328,0.405,0.491,0.977,0.491,1.716
		c0,0.74-0.166,1.315-0.495,1.724c-0.331,0.41-0.788,0.615-1.375,0.615c-0.293,0-0.561-0.055-0.804-0.163
		c-0.243-0.106-0.446-0.274-0.611-0.499h-0.049l-0.144,0.579h-0.489v-6.396h0.682v1.554c0,0.348-0.011,0.66-0.033,0.937h0.033
		C70.836,108.982,71.309,108.756,71.934,108.756z M71.835,109.328c-0.466,0-0.801,0.135-1.008,0.401
		c-0.205,0.268-0.309,0.717-0.309,1.35c0,0.635,0.106,1.086,0.317,1.359c0.211,0.272,0.55,0.409,1.016,0.409
		c0.42,0,0.732-0.152,0.938-0.459c0.205-0.305,0.308-0.744,0.308-1.317c0-0.586-0.103-1.024-0.308-1.312
		C72.583,109.473,72.265,109.328,71.835,109.328z"/>
	<path fill="#2A2A2A" d="M77.768,113.337l-0.136-0.642h-0.033c-0.225,0.283-0.45,0.475-0.672,0.574
		c-0.224,0.1-0.503,0.148-0.837,0.148c-0.447,0-0.796-0.114-1.05-0.345c-0.252-0.229-0.38-0.558-0.38-0.982
		c0-0.91,0.728-1.387,2.183-1.431l0.764-0.024v-0.279c0-0.354-0.075-0.614-0.228-0.783c-0.152-0.168-0.396-0.252-0.73-0.252
		c-0.375,0-0.8,0.114-1.274,0.344l-0.21-0.522c0.222-0.121,0.465-0.214,0.73-0.284c0.265-0.068,0.529-0.103,0.796-0.103
		c0.537,0,0.934,0.12,1.194,0.358c0.259,0.238,0.388,0.621,0.388,1.147v3.076h-0.505V113.337z M76.226,112.855
		c0.425,0,0.758-0.117,1-0.35c0.242-0.231,0.364-0.559,0.364-0.978v-0.409l-0.682,0.029c-0.542,0.02-0.934,0.104-1.174,0.254
		c-0.238,0.146-0.359,0.381-0.359,0.695c0,0.247,0.075,0.436,0.224,0.564C75.747,112.791,75.957,112.855,76.226,112.855z"/>
	<path fill="#2A2A2A" d="M83.567,111.079c0,0.735-0.185,1.31-0.556,1.721c-0.37,0.412-0.881,0.618-1.534,0.618
		c-0.403,0-0.761-0.094-1.073-0.283c-0.312-0.188-0.554-0.459-0.724-0.813c-0.169-0.353-0.255-0.769-0.255-1.242
		c0-0.734,0.184-1.306,0.551-1.715c0.367-0.411,0.876-0.615,1.529-0.615c0.63,0,1.131,0.211,1.502,0.629
		C83.382,109.797,83.567,110.364,83.567,111.079z M80.135,111.079c0,0.575,0.115,1.015,0.345,1.316
		c0.23,0.304,0.569,0.452,1.015,0.452c0.447,0,0.786-0.148,1.018-0.449c0.231-0.303,0.347-0.74,0.347-1.319
		c0-0.571-0.115-1.008-0.347-1.304c-0.232-0.299-0.574-0.446-1.026-0.446c-0.447,0-0.784,0.146-1.012,0.44
		C80.249,110.062,80.135,110.5,80.135,111.079z"/>
</g>
<g enable-background="new    ">
	<path fill="#2A2A2A" d="M28.006,100.897c-0.396,0-0.709,0.133-0.938,0.396c-0.229,0.265-0.345,0.625-0.345,1.084
		c0,0.472,0.11,0.836,0.332,1.095c0.22,0.257,0.536,0.385,0.946,0.385c0.251,0,0.539-0.045,0.861-0.136v0.369
		c-0.25,0.094-0.558,0.14-0.925,0.14c-0.531,0-0.941-0.162-1.229-0.483c-0.289-0.323-0.433-0.781-0.433-1.374
		c0-0.372,0.069-0.697,0.209-0.978c0.139-0.28,0.339-0.495,0.602-0.646c0.263-0.15,0.571-0.228,0.926-0.228
		c0.378,0,0.709,0.069,0.992,0.208l-0.178,0.36C28.553,100.962,28.28,100.897,28.006,100.897z"/>
	<path fill="#2A2A2A" d="M31.922,102.827c0,0.44-0.112,0.785-0.334,1.032c-0.222,0.248-0.529,0.372-0.919,0.372
		c-0.242,0-0.457-0.057-0.644-0.17c-0.188-0.114-0.333-0.277-0.435-0.488c-0.102-0.212-0.153-0.46-0.153-0.746
		c0-0.441,0.11-0.783,0.33-1.03c0.22-0.246,0.526-0.368,0.917-0.368c0.378,0,0.68,0.125,0.902,0.377
		C31.81,102.056,31.922,102.397,31.922,102.827z M29.862,102.827c0,0.345,0.069,0.609,0.207,0.79
		c0.138,0.181,0.341,0.271,0.609,0.271c0.268,0,0.472-0.089,0.61-0.271c0.139-0.179,0.208-0.443,0.208-0.791
		c0-0.344-0.069-0.604-0.208-0.783c-0.138-0.179-0.344-0.268-0.616-0.268c-0.268,0-0.47,0.088-0.607,0.264
		C29.93,102.216,29.862,102.478,29.862,102.827z"/>
	<path fill="#2A2A2A" d="M34.489,104.182v-1.75c0-0.22-0.05-0.385-0.15-0.493c-0.1-0.109-0.257-0.163-0.471-0.163
		c-0.283,0-0.491,0.076-0.621,0.229c-0.132,0.153-0.197,0.405-0.197,0.756v1.418h-0.41v-2.704h0.333l0.067,0.37h0.02
		c0.083-0.132,0.202-0.236,0.353-0.31c0.151-0.073,0.32-0.11,0.505-0.11c0.327,0,0.571,0.079,0.736,0.235
		c0.164,0.158,0.247,0.408,0.247,0.754v1.763h-0.411V104.182z"/>
	<path fill="#2A2A2A" d="M36.613,103.893c0.072,0,0.143-0.005,0.21-0.016s0.121-0.022,0.161-0.034v0.313
		c-0.044,0.021-0.11,0.039-0.196,0.052c-0.087,0.015-0.164,0.021-0.233,0.021c-0.523,0-0.784-0.275-0.784-0.826v-1.609h-0.387
		v-0.196l0.387-0.17l0.172-0.578h0.237v0.627h0.784v0.318H36.18v1.591c0,0.163,0.039,0.288,0.116,0.375
		C36.372,103.849,36.478,103.893,36.613,103.893z"/>
	<path fill="#2A2A2A" d="M39.186,104.182l-0.082-0.385h-0.02c-0.135,0.169-0.269,0.285-0.403,0.344
		c-0.134,0.06-0.301,0.089-0.502,0.089c-0.268,0-0.478-0.068-0.63-0.206c-0.152-0.139-0.228-0.335-0.228-0.59
		c0-0.546,0.437-0.832,1.31-0.858l0.459-0.015v-0.168c0-0.212-0.046-0.369-0.138-0.47c-0.091-0.102-0.237-0.152-0.438-0.152
		c-0.225,0-0.48,0.069-0.764,0.207l-0.127-0.313c0.133-0.072,0.279-0.129,0.438-0.17c0.158-0.041,0.318-0.062,0.477-0.062
		c0.322,0,0.562,0.071,0.716,0.215c0.155,0.143,0.233,0.373,0.233,0.688v1.845h-0.302V104.182z M38.26,103.893
		c0.255,0,0.456-0.07,0.601-0.209c0.145-0.141,0.218-0.336,0.218-0.588v-0.244l-0.41,0.017c-0.327,0.012-0.561,0.063-0.704,0.151
		c-0.145,0.09-0.215,0.229-0.215,0.419c0,0.147,0.044,0.26,0.134,0.338S38.1,103.893,38.26,103.893z"/>
	<path fill="#2A2A2A" d="M41.414,104.229c-0.392,0-0.695-0.12-0.91-0.361c-0.214-0.24-0.321-0.582-0.321-1.022
		c0-0.452,0.109-0.801,0.327-1.047c0.219-0.248,0.529-0.37,0.933-0.37c0.129,0,0.26,0.014,0.389,0.042
		c0.129,0.028,0.232,0.061,0.306,0.099l-0.126,0.348c-0.09-0.036-0.189-0.066-0.296-0.09c-0.106-0.022-0.202-0.035-0.284-0.035
		c-0.549,0-0.824,0.35-0.824,1.05c0,0.333,0.067,0.588,0.202,0.765c0.133,0.177,0.332,0.266,0.595,0.266
		c0.225,0,0.457-0.049,0.694-0.146v0.362C41.916,104.183,41.688,104.229,41.414,104.229z"/>
	<path fill="#2A2A2A" d="M43.611,103.893c0.072,0,0.143-0.005,0.21-0.016c0.068-0.011,0.122-0.022,0.16-0.034v0.313
		c-0.044,0.021-0.109,0.039-0.196,0.052c-0.086,0.015-0.164,0.021-0.233,0.021c-0.523,0-0.784-0.275-0.784-0.826v-1.609h-0.387
		v-0.196l0.387-0.17l0.173-0.578h0.237v0.627h0.784v0.318h-0.784v1.591c0,0.163,0.038,0.288,0.116,0.375
		C43.371,103.849,43.476,103.893,43.611,103.893z"/>
	<path fill="#2A2A2A" d="M46.185,104.182l-0.082-0.385h-0.02c-0.135,0.169-0.269,0.285-0.403,0.344
		c-0.134,0.06-0.301,0.089-0.502,0.089c-0.268,0-0.479-0.068-0.63-0.206c-0.153-0.139-0.229-0.335-0.229-0.59
		c0-0.546,0.437-0.832,1.31-0.858l0.459-0.015v-0.168c0-0.212-0.045-0.369-0.137-0.47c-0.091-0.102-0.237-0.152-0.438-0.152
		c-0.226,0-0.48,0.069-0.765,0.207l-0.126-0.313c0.134-0.072,0.279-0.129,0.439-0.17c0.158-0.041,0.317-0.062,0.477-0.062
		c0.322,0,0.562,0.071,0.717,0.215c0.155,0.143,0.232,0.373,0.232,0.688v1.845h-0.302V104.182z M45.259,103.893
		c0.255,0,0.456-0.07,0.601-0.209c0.145-0.141,0.218-0.336,0.218-0.588v-0.244l-0.409,0.017c-0.326,0.012-0.561,0.063-0.704,0.151
		c-0.144,0.09-0.216,0.229-0.216,0.419c0,0.147,0.045,0.26,0.134,0.338C44.972,103.854,45.097,103.893,45.259,103.893z"/>
	<path fill="#2A2A2A" d="M48.564,101.428c0.12,0,0.227,0.01,0.323,0.03l-0.057,0.379c-0.112-0.025-0.21-0.037-0.296-0.037
		c-0.219,0-0.405,0.089-0.561,0.267c-0.155,0.178-0.232,0.398-0.232,0.663v1.451h-0.41v-2.704h0.338l0.047,0.5h0.02
		c0.1-0.176,0.221-0.311,0.362-0.407C48.241,101.476,48.395,101.428,48.564,101.428z"/>
</g>
<polygon fill="#2A2A2A" points="66.601,90.442 63.756,88.912 60.971,90.547 61.447,87.182 59.126,84.847 62.264,84.3 63.615,81.222 
	65.079,84.248 68.235,84.679 66.002,87.097 "/>
<polygon fill="#2A2A2A" points="77.964,90.617 75.121,89.084 72.333,90.72 72.809,87.354 70.488,85.022 73.627,84.474 
	74.977,81.396 76.442,84.422 79.599,84.853 77.365,87.271 "/>
<polygon fill="#2A2A2A" points="90.22,90.442 87.375,88.912 84.59,90.547 85.066,87.182 82.745,84.847 85.882,84.3 87.232,81.222 
	88.698,84.248 91.854,84.679 89.621,87.097 "/>
<polygon fill="#FFFFFF" points="100.553,90.442 97.711,88.912 94.922,90.547 95.399,87.182 93.077,84.847 96.216,84.3 
	97.567,81.222 99.032,84.248 102.189,84.679 99.954,87.097 "/>
<path fill="#2A2A2A" d="M35.97,85.718c-0.502,0.242-3.006,0.295-3.321-0.515c1.016-0.626,2.682-0.054,3.35,0.515H35.97z"/>
<path fill="#2A2A2A" d="M42.36,85.718c-1.345-0.154-2.194,0.197-3.322,0.288c0.078-1.049,3.186-1.715,3.282-0.288H42.36z"/>
<path fill="#2A2A2A" d="M33.924,86.751c-0.043-0.557,0.907-0.117,1.279-0.257c0.108,0.541-0.173,0.687-0.254,1.036
	c-0.819,0.207-0.578-0.655-1.054-0.779H33.924L33.924,86.751z"/>
<path fill="#2A2A2A" d="M39.804,86.49c0.426,0,0.864,0,1.246,0c-0.301,0.388-0.22,1.155-1.023,1.039
	c-0.167-0.273-0.198-0.56-0.198-1.039H39.804z"/>
<path fill="#EDEEF2" d="M36.957,86.679"/>
<line fill="none" x1="36.381" y1="88.885" x2="37.722" y2="88.785"/>
<path fill="#2A2A2A" d="M39.304,90.822c-0.237,0.498-1.052,0.863-2.021,0.863c-0.997,0-1.829-0.388-2.041-0.901
	c-0.103,0.024-0.164,0.078-0.164,0.186c0,0.484,0.958,1.629,2.106,1.625c1.189,0,2.151-1.176,2.151-1.625
	c0.043-0.073,0.015-0.073,0.015-0.144h-0.046L39.304,90.822L39.304,90.822z"/>
<path fill="#2A2A2A" d="M36.222,71.497c1.26,0.67,1.914,1.913,2.872,2.776c0.778,0.201-0.204-1.311,0.572-1.11
	c1.572,0.38,2.012,2.008,2.296,3.619c0.503-0.068,0.653-0.482,0.575-1.115c0.996,0.386,1.245,1.628,1.148,3.062
	c0.612,0.095,0.546-0.398,0.572-0.836c2.974,2.394,0.672,8.043,0,11.108c-0.021-3.134-1.704-4.655-1.717-7.795
	c-0.837-1.773-3.954-0.924-5.44-0.281c-1.739-0.527-3.734-1.186-5.44-0.278c-0.483,0.918-0.17,1.818,0,2.786
	c-1.373,0.801-1.658,2.655-1.432,5.008c-1.62-2.063-2.334-6.952-1.146-10.021c0.637-0.154,0.385,0.576,0.862,0.558
	c0.418-1.266,0.811-2.552,1.432-3.619c1.017-0.431,0.191,0.959,0.86,0.86c0.788-0.716,0.871-2.125,1.718-2.781
	c0.736,0,0.385,1.053,1.149,1.111c0.97-0.414,1.184-1.564,1.087-3.053h0.031V71.497z"/>
<path fill="none" stroke="#2A2A2A" stroke-width="0.2197" stroke-miterlimit="10" d="M44.622,85.456c0,4.92-3.346,8.909-7.475,8.909
	c-4.133,0-7.483-3.989-7.483-8.909c0-4.916,3.35-8.905,7.483-8.905C41.276,76.551,44.622,80.54,44.622,85.456z"/>
<path fill="#2A2A2A" d="M98.501,158.234c-0.29,0.82-0.809-0.293-1.411,0c-0.202-2.125,1.131-2.484,1.411-4.051
	c-0.406-0.359-1.24,1.084-1.647,1.625c-0.351-0.957,1.107-2.145,1.18-3.516c-1.156,0.01-0.298-0.773-0.236-2.158
	c-0.106-0.404-0.303,0.105-0.708,0c0.06-2.23,0.015-4.334-0.94-5.398c-0.485,3.131-4.827,3.287-5.653,5.129
	c-0.562,0.621-2.118,0.1-3.065,0.27c-0.977,0.594-1.353,1.867-1.176,3.762c-0.63-0.361-0.399-1.703-0.948-2.158
	c-0.924,2.363,1.29,3.545,1.399,5.666c-0.737-0.326-1.469-0.654-2.122-1.078c0.041-0.316,0.434-0.229,0.708-0.27
	c-0.758-0.756-1.866-1.102-2.116-2.432c0.185,0,0.212,0.324,0.428,0.324c-0.005-1.166-1.177-0.996-1.182-2.16
	c1.189,0.469-0.293-1.156-0.236-1.889c0.669,0.215,0.612-0.383,1.181-0.27c-0.605-7.811,5.188-15.07,10.836-10.529
	c6.713,0.645,6.879,12.682,3.762,17.818c0.03,0.605,0.203,1.035,0.525,1.316h0.01V158.234L98.501,158.234z"/>
<path fill="#2A2A2A" d="M83.657,149.945c1.983,2.689,2.253,7.311,5.051,9.025c0,0.861,0,1.723,0,2.578
	c-1.481,0.281-1.869-1.207-2.634-2.361c-1.325-1.99-3.374-2.402-3.574-4.508c-0.128-1.67,1.056-2.744,1.161-4.732h-0.003V149.945z"
	/>
<path fill="#2A2A2A" d="M98.539,149.992c0.982,1.074,1.4,2.793,1.291,5.156c-2.2,1.711-3.019,5-5.833,6.008
	c-0.7-2.902,0.994-3.148,2.073-4.721c1.372-2.031,1.454-4.611,2.423-6.443H98.539L98.539,149.992z"/>
<path fill="#2A2A2A" d="M93.917,157.025c0,0.467-0.891,1.684-1.995,1.684c-1.098,0-1.99-1.217-1.99-1.684c0-0.463,0.886,0,2.042,0
	c1.049-0.014,1.949-0.444,1.949,0H93.917z"/>
<path fill="#2A2A2A" d="M90.359,150.803c-0.567,0.27-3.375,0.33-3.731-0.582c1.141-0.758,3.048-0.111,3.693,0.582H90.359z"/>
<path fill="#2A2A2A" d="M97.533,150.803c-1.512-0.174-2.466,0.215-3.734,0.322c0.088-1.125,3.619-1.986,3.724-0.322H97.533z"/>
<path fill="#2A2A2A" d="M88.067,152.377c-0.052-0.628,1.016-0.134,1.435-0.292c0.12,0.607-0.198,0.769-0.289,1.164
	C88.289,153.533,88.601,152.453,88.067,152.377L88.067,152.377z"/>
<path fill="#2A2A2A" d="M94.659,152.086c0.48,0,0.972,0,1.397,0c-0.336,0.431-0.244,1.298-1.146,1.164
	c-0.186-0.256-0.289-0.682-0.289-1.164H94.659z"/>
<path fill="none" stroke="#2A2A2A" stroke-width="0.2465" stroke-miterlimit="10" d="M98.212,149.875
	c0,5.531-2.994,10.016-6.69,10.016c-3.7,0-6.695-4.486-6.695-10.016c0-5.533,2.995-10.016,6.695-10.016
	C95.217,139.859,98.212,144.342,98.212,149.875z"/>
<polygon fill="#2A2A2A" points="119.461,55.461 117.09,54.185 114.768,55.547 115.164,52.744 113.229,50.799 115.846,50.343 
	116.971,47.778 118.191,50.3 120.822,50.659 118.959,52.673 "/>
<polygon fill="#2A2A2A" points="129.301,55.461 126.931,54.185 124.607,55.547 125.005,52.744 123.07,50.799 125.688,50.343 
	126.813,47.778 128.031,50.3 130.664,50.659 128.802,52.673 "/>
<polygon fill="#FFFFFF" points="147.753,55.461 145.384,54.185 143.062,55.547 143.459,52.744 141.522,50.799 144.138,50.343 
	145.264,47.778 146.486,50.3 149.117,50.659 147.255,52.673 "/>
<polygon fill="#FFFFFF" points="138.48,55.461 136.113,54.185 133.79,55.547 134.186,52.744 132.252,50.799 134.867,50.343 
	135.992,47.778 137.215,50.3 139.847,50.659 137.982,52.673 "/>
<g>
	<path fill="#ECE6CD" d="M97.738,50.38c-0.007-0.05-0.015-0.098-0.023-0.148c0.131,0,0.209,0.098,0.311,0.21
		c-0.054-0.093-0.148-0.093-0.25-0.059h-0.037L97.738,50.38L97.738,50.38z"/>
	<path fill="#ECE6CD" d="M97.08,49.252l-0.252,0.205c-0.016-0.004-0.037-0.009-0.05-0.014c0.014-0.049,0.022-0.093,0.039-0.143
		c0.098-0.098,0.229-0.098,0.229-0.049H97.08z"/>
	<path fill="#ECE6CD" d="M97.877,49.488c-0.014,0.02-0.027,0.034-0.046,0c-0.018-0.016-0.042-0.035-0.056-0.059
		c0.049-0.034,0.088-0.075,0.121-0.114C97.91,49.41,97.877,49.41,97.877,49.488L97.877,49.488z"/>
	<path fill="#ECE6CD" d="M96.572,49.299c-0.009-0.002-0.019-0.008-0.031-0.013c0.015-0.083,0.045-0.164,0.084-0.229
		c0.02,0.041,0,0.041,0,0.032"/>
</g>
<path fill="#ECE6CD" d="M97.975,51.908c-0.169,0-0.308-0.094-0.308-0.206c0-0.116,0.139-0.21,0.308-0.21"/>
<ellipse fill="#ECE6CD" cx="97.253" cy="51.7" rx="0.312" ry="0.208"/>
<path fill="#2A2A2A" d="M92.904,50.31c-0.551,0.261-3.268,0.316-3.613-0.559c1.11-0.693,3.005-0.071,3.627,0.559H92.904z"/>
<path fill="#2A2A2A" d="M99.852,50.31c-1.464-0.168-2.387,0.205-3.613,0.313c0.084-1.151,3.442-1.878,3.655-0.313H99.852z"/>
<path fill="#2A2A2A" d="M90.685,51.43c-0.049-0.608,0.984-0.128,1.389-0.279c0.119,0.586-0.19,0.743-0.279,1.123
	c-0.891,0.217-0.541-0.722-1.06-0.844H90.685z"/>
<path fill="#2A2A2A" d="M97.072,51.151c0.461,0,0.941,0,1.352,0c-0.331,0.417-0.243,1.252-1.11,1.123
	c-0.177-0.202-0.234-0.618-0.234-1.123H97.072z"/>
<path fill="#2A2A2A" d="M99.311,49.888c1.169-4.163-2.614-2.796-5.399-2.829c-2.616-0.029-5.682-0.808-4.373,2.358
	c-1.265,0.956-1.352,3.003-1.287,5.184c-0.658-0.65-0.359-2.187-0.769-3.063c-0.676-0.074-0.844,0.324-0.774,0.942
	c-1.394-0.382,0.051-1.922-1.282-2.354c-0.072-0.621,0.094-1.016,0.769-0.946c-0.031-0.84-0.948-0.858-0.769-1.885
	c-0.038-0.739,0.657-0.81,1.282-0.945c-0.397-1.099-0.181-2.137,0.517-2.825c0.434,0,0.833,0,1.249,0
	c0.219-1.639,2.951-3.014,4.373-1.415c0.855-1.904,4.961-2.278,5.096,0.518c1.942-0.758,3.229,0.729,2.811,2.834
	c0.065,0.518,1.143,0.103,1.244,0.469c0.245,0.628,0.21,1.338-0.512,1.665c0.21,0.522,1.251,0.312,1.251,0.941
	c-0.005,1.604-1.583,1.52-0.775,3.305c-0.486,0.052-0.565-0.268-1.026-0.238c0.033,0.97-0.447,1.474-0.257,2.593
	c-1.063-0.769,0.462-4.102-1.412-4.309H99.311z"/>
<path fill="none" stroke="#2A2A2A" stroke-width="0.2387" stroke-miterlimit="10" d="M88.914,56.769
	c-0.58-1.452-0.913-3.151-0.913-4.965c0-5.354,2.9-9.698,6.483-9.698c3.579,0,6.479,4.344,6.479,9.698
	c0,1.812-0.333,3.508-0.91,4.959"/>
</svg>
