<?xml version="1.0" encoding="utf-8"?>
<!-- Generator: Adobe Illustrator 15.1.0, SVG Export Plug-In . SVG Version: 6.00 Build 0)  -->
<!DOCTYPE svg PUBLIC "-//W3C//DTD SVG 1.1//EN" "http://www.w3.org/Graphics/SVG/1.1/DTD/svg11.dtd">
<svg version="1.1" id="Layer_1" xmlns="http://www.w3.org/2000/svg" xmlns:xlink="http://www.w3.org/1999/xlink" x="0px" y="0px"
	 width="227px" height="160px" viewBox="44.5 56.25 227 160" enable-background="new 44.5 56.25 227 160" xml:space="preserve">
<path fill="#EDEEF2" stroke="#2A2A2A" stroke-width="1.2109" stroke-miterlimit="10" d="M584.126,37.737"/>
<path fill="#EDEEF2" stroke="#2A2A2A" stroke-width="1.2109" stroke-miterlimit="10" d="M18.624,570.452"/>
<path fill="none" stroke="#2A2A2A" stroke-width="0.8795" stroke-miterlimit="10" d="M114.062,92.322H243.35"/>
<path fill="none" stroke="#2A2A2A" stroke-width="0.8795" stroke-miterlimit="10" d="M77.133,93.388
	c0-0.589,0.458-1.066,1.024-1.066"/>
<path fill="none" stroke="#2A2A2A" stroke-width="0.8795" stroke-miterlimit="10" d="M243.35,215.989H78.158
	c-0.566,0-1.024-0.476-1.024-1.067v-93.409"/>
<path fill="none" stroke="#2A2A2A" stroke-width="0.8795" stroke-miterlimit="10" d="M90.462,75.639
	c10.92,0,20.204,6.971,23.6,16.683c0.895,2.559,1.381,5.308,1.381,8.169c0,13.726-11.184,24.852-24.98,24.852
	c-4.903,0-9.476-1.405-13.333-3.831c-7-4.404-11.647-12.173-11.647-21.021C65.481,86.766,76.665,75.639,90.462,75.639z"/>
<g>
	<path fill="#ECE6CD" d="M83.966,98.87h-0.064c-0.179-0.064-0.342-0.064-0.436,0.097c0.175-0.195,0.314-0.365,0.542-0.365
		c-0.016,0.089-0.028,0.17-0.042,0.259V98.87z"/>
	<path fill="#ECE6CD" d="M85.177,96.891c0-0.081,0.229-0.081,0.398,0.089c0.028,0.082,0.045,0.163,0.069,0.244
		c-0.024,0.009-0.061,0.016-0.09,0.024l-0.439-0.358L85.177,96.891L85.177,96.891z"/>
	<path fill="#ECE6CD" d="M83.723,97.307c0-0.139-0.058-0.139-0.033-0.301c0.057,0.065,0.127,0.138,0.212,0.196
		c-0.025,0.041-0.065,0.073-0.098,0.105C83.771,97.364,83.746,97.339,83.723,97.307L83.723,97.307z"/>
	<path fill="#ECE6CD" d="M85.909,96.605c0,0.017-0.037,0.017,0-0.056c0.07,0.114,0.122,0.261,0.146,0.398
		c-0.02,0.008-0.037,0.024-0.053,0.024"/>
</g>
<path fill="#ECE6CD" d="M85.359,101.167c0,0.204-0.244,0.367-0.546,0.367c-0.302,0-0.546-0.163-0.546-0.367
	c0-0.196,0.244-0.358,0.546-0.358C85.115,100.809,85.359,100.972,85.359,101.167z"/>
<path fill="#2A2A2A" d="M93,98.635c1.087-1.099,4.398-2.183,6.336-0.977c-0.602,1.53-5.351,1.433-6.312,0.977H93z"/>
<path fill="#2A2A2A" d="M80.814,98.635c0.372-2.729,6.239-1.458,6.386,0.545c-2.143-0.188-3.755-0.84-6.312-0.545H80.814z"/>
<path fill="#2A2A2A" d="M96.812,100.598c-0.903,0.211-0.292,1.849-1.848,1.474c-0.155-0.668-0.697-0.936-0.49-1.962
	c0.71,0.261,2.514-0.578,2.428,0.489H96.812z"/>
<path fill="#2A2A2A" d="M85.729,100.109c0,0.88-0.1,1.605-0.41,1.962c-1.515,0.22-1.36-1.238-1.939-1.962c0.717,0,1.557,0,2.363,0
	H85.729z"/>
<path fill="#2A2A2A" d="M86.167,110.648h-0.078c0-0.024-0.069,0.156,0.016,0.285c0,0.847,1.902,3.071,4.085,3.08
	c2.174,0.008,3.999-2.167,3.999-3.08c0-0.202-0.11-0.317-0.313-0.35c-0.403,0.977-1.983,1.711-3.873,1.711
	C88.161,112.294,86.606,111.594,86.167,110.648L86.167,110.648z"/>
<path fill="#2A2A2A" d="M81.905,97.9c-3.273,0.359-0.61,6.183-2.467,7.527c0.333-1.955-0.506-2.835-0.449-4.529
	c-0.807-0.049-0.945,0.504-1.792,0.415c1.409-3.119-1.348-2.974-1.356-5.774c0-1.1,1.82-0.734,2.188-1.645
	c-1.263-0.571-1.324-1.809-0.896-2.908c0.179-0.635,2.06,0.089,2.175-0.815c-0.729-3.681,1.519-6.28,4.912-4.952
	c0.236-4.887,7.408-4.236,8.903-0.904c2.484-2.793,7.258-0.391,7.64,2.468c0.724,0,1.425,0,2.182,0
	c1.217,1.206,1.597,3.013,0.904,4.936c1.092,0.236,2.307,0.358,2.241,1.654c0.314,1.791-1.291,1.824-1.344,3.289
	c1.182-0.122,1.47,0.571,1.344,1.654c-2.33,0.757,0.195,3.445-2.241,4.114c0.122-1.076-0.171-1.776-1.352-1.646
	c-0.717,1.531-0.195,4.219-1.343,5.351c0.113-3.812-0.042-7.388-2.249-9.058c2.285-5.531-3.07-4.17-7.64-4.121
	c-4.866,0.057-11.475-2.329-9.432,4.943L81.905,97.9L81.905,97.9z"/>
<path fill="none" stroke="#2A2A2A" stroke-width="0.4171" stroke-miterlimit="10" d="M78.945,101.249
	c0,9.351,5.066,16.943,11.317,16.943c6.26,0,11.327-7.591,11.327-16.943c0-9.358-5.067-16.941-11.327-16.941
	C84.011,84.307,78.945,91.89,78.945,101.249z"/>
<g enable-background="new    ">
	<path fill="#2A2A2A" d="M134.591,102.518c0,0.759-0.275,1.352-0.825,1.776c-0.55,0.425-1.299,0.636-2.242,0.636
		c-1.023,0-1.811-0.131-2.361-0.394v-0.968c0.354,0.151,0.739,0.268,1.157,0.354c0.419,0.087,0.831,0.131,1.24,0.131
		c0.668,0,1.172-0.126,1.511-0.381c0.337-0.253,0.507-0.606,0.507-1.059c0-0.297-0.061-0.543-0.179-0.735
		c-0.121-0.19-0.322-0.365-0.604-0.527c-0.281-0.162-0.709-0.345-1.283-0.549c-0.802-0.286-1.376-0.627-1.721-1.021
		c-0.342-0.392-0.516-0.904-0.516-1.54c0-0.664,0.25-1.194,0.75-1.586c0.5-0.393,1.162-0.59,1.982-0.59
		c0.856,0,1.646,0.158,2.367,0.473l-0.314,0.873c-0.713-0.299-1.403-0.449-2.078-0.449c-0.53,0-0.946,0.115-1.243,0.343
		c-0.299,0.226-0.449,0.544-0.449,0.95c0,0.299,0.055,0.543,0.165,0.734c0.11,0.191,0.295,0.365,0.558,0.526
		c0.261,0.157,0.661,0.336,1.201,0.526c0.905,0.323,1.528,0.67,1.867,1.039C134.423,101.447,134.591,101.928,134.591,102.518z"/>
	<path fill="#2A2A2A" d="M141.163,104.814h-4.807v-8.625h4.808v0.891h-3.805v2.778h3.576v0.885h-3.576v3.175h3.805L141.163,104.814
		L141.163,104.814z"/>
	<path fill="#2A2A2A" d="M144.079,101.227v3.587h-1.004v-8.625h2.366c1.059,0,1.838,0.203,2.345,0.607
		c0.506,0.404,0.76,1.014,0.76,1.83c0,1.14-0.58,1.912-1.736,2.311l2.343,3.878h-1.187l-2.089-3.587L144.079,101.227
		L144.079,101.227z M144.079,100.365h1.374c0.708,0,1.229-0.141,1.558-0.421c0.332-0.282,0.496-0.704,0.496-1.267
		c0-0.569-0.169-0.98-0.503-1.233c-0.338-0.25-0.878-0.377-1.621-0.377h-1.304V100.365L144.079,100.365z"/>
	<path fill="#2A2A2A" d="M154.34,100.294h2.932v4.193c-0.458,0.146-0.922,0.257-1.393,0.331c-0.471,0.075-1.02,0.111-1.64,0.111
		c-1.305,0-2.323-0.387-3.05-1.164c-0.728-0.777-1.091-1.865-1.091-3.266c0-0.897,0.18-1.684,0.54-2.357
		c0.359-0.674,0.878-1.189,1.555-1.546c0.676-0.356,1.468-0.534,2.377-0.534c0.921,0,1.778,0.169,2.573,0.508l-0.389,0.885
		c-0.779-0.331-1.529-0.496-2.248-0.496c-1.051,0-1.871,0.312-2.461,0.938c-0.589,0.625-0.885,1.493-0.885,2.603
		c0,1.165,0.285,2.047,0.854,2.649c0.567,0.602,1.402,0.903,2.504,0.903c0.598,0,1.182-0.069,1.752-0.208v-2.655h-1.928V100.294
		L154.34,100.294z"/>
	<path fill="#2A2A2A" d="M159.343,104.814v-8.625h1.003v8.626L159.343,104.814L159.343,104.814z"/>
	<path fill="#2A2A2A" d="M170.198,100.488c0,1.38-0.351,2.466-1.048,3.258c-0.698,0.791-1.668,1.185-2.911,1.185
		c-1.271,0-2.252-0.387-2.94-1.165c-0.693-0.776-1.037-1.874-1.037-3.289c0-1.404,0.348-2.495,1.037-3.265
		c0.693-0.774,1.678-1.158,2.953-1.158c1.237,0,2.205,0.392,2.9,1.179C169.85,98.018,170.198,99.104,170.198,100.488z
		 M163.324,100.488c0,1.169,0.248,2.056,0.745,2.66c0.497,0.602,1.22,0.904,2.17,0.904c0.955,0,1.677-0.301,2.165-0.902
		c0.485-0.602,0.732-1.49,0.732-2.662c0-1.159-0.244-2.04-0.727-2.64c-0.489-0.6-1.209-0.899-2.158-0.899
		c-0.955,0-1.686,0.301-2.183,0.904C163.572,98.457,163.324,99.336,163.324,100.488z"/>
	<path fill="#2A2A2A" d="M176.264,104.814h-1.002v-8.625h4.809v0.891h-3.807v3.156h3.576v0.89h-3.576V104.814z"/>
	<path fill="#2A2A2A" d="M186.306,104.814h-4.811v-8.625h4.811v0.891h-3.807v2.778h3.577v0.885h-3.577v3.175h3.807V104.814z"/>
	<path fill="#2A2A2A" d="M189.22,101.227v3.587h-1.003v-8.625h2.366c1.058,0,1.84,0.203,2.348,0.607
		c0.503,0.404,0.756,1.014,0.756,1.83c0,1.14-0.576,1.912-1.735,2.311l2.343,3.878h-1.184l-2.089-3.587L189.22,101.227
		L189.22,101.227z M189.22,100.365h1.376c0.708,0,1.226-0.141,1.556-0.421c0.332-0.282,0.497-0.704,0.497-1.267
		c0-0.569-0.167-0.98-0.506-1.233c-0.335-0.25-0.874-0.377-1.617-0.377h-1.306V100.365L189.22,100.365z"/>
	<path fill="#2A2A2A" d="M196.688,101.227v3.587h-1.002v-8.625h2.366c1.059,0,1.839,0.203,2.346,0.607
		c0.504,0.404,0.757,1.014,0.757,1.83c0,1.14-0.578,1.912-1.733,2.311l2.341,3.878h-1.186l-2.088-3.587L196.688,101.227
		L196.688,101.227z M196.688,100.365h1.376c0.706,0,1.227-0.141,1.557-0.421c0.33-0.282,0.494-0.704,0.494-1.267
		c0-0.569-0.166-0.98-0.503-1.233c-0.334-0.25-0.875-0.377-1.618-0.377h-1.306V100.365L196.688,100.365z"/>
	<path fill="#2A2A2A" d="M207.963,104.814h-4.807v-8.625h4.807v0.891h-3.805v2.778h3.576v0.885h-3.576v3.175h3.805V104.814z"/>
	<path fill="#2A2A2A" d="M210.879,101.227v3.587h-1.003v-8.625h2.366c1.058,0,1.84,0.203,2.345,0.607s0.759,1.014,0.759,1.83
		c0,1.14-0.578,1.912-1.735,2.311l2.342,3.878h-1.185l-2.088-3.587L210.879,101.227L210.879,101.227z M210.879,100.365h1.375
		c0.709,0,1.229-0.141,1.558-0.421c0.329-0.282,0.496-0.704,0.496-1.267c0-0.569-0.169-0.98-0.503-1.233
		c-0.339-0.25-0.878-0.377-1.621-0.377h-1.304L210.879,100.365L210.879,100.365z"/>
</g>
<g enable-background="new    ">
	<path fill="#2A2A2A" d="M135.121,114.073c0,1.138-0.309,2.009-0.928,2.611c-0.618,0.604-1.508,0.904-2.668,0.904h-1.912v-6.901
		h2.115c1.072,0,1.907,0.296,2.501,0.892C134.824,112.175,135.121,113.005,135.121,114.073z M134.272,114.1
		c0-0.9-0.227-1.578-0.677-2.034c-0.452-0.457-1.122-0.685-2.013-0.685h-1.167v5.514h0.976c0.958,0,1.676-0.235,2.158-0.706
		C134.031,115.718,134.272,115.022,134.272,114.1z"/>
	<path fill="#2A2A2A" d="M136.476,111.013c0-0.178,0.043-0.31,0.131-0.393c0.089-0.084,0.199-0.126,0.332-0.126
		c0.125,0,0.234,0.042,0.325,0.127c0.091,0.086,0.137,0.215,0.137,0.391c0,0.176-0.045,0.308-0.137,0.396
		c-0.091,0.086-0.2,0.13-0.325,0.13c-0.133,0-0.243-0.044-0.332-0.13C136.519,111.32,136.476,111.188,136.476,111.013z
		 M137.326,117.588h-0.784v-5.173h0.784V117.588z"/>
	<path fill="#2A2A2A" d="M142.325,116.178c0,0.481-0.179,0.853-0.54,1.113c-0.357,0.261-0.863,0.392-1.51,0.392
		c-0.686,0-1.221-0.109-1.605-0.326v-0.727c0.248,0.126,0.516,0.225,0.8,0.298c0.284,0.072,0.56,0.107,0.824,0.107
		c0.409,0,0.723-0.063,0.943-0.195c0.222-0.131,0.332-0.33,0.332-0.597c0-0.202-0.088-0.375-0.262-0.518
		c-0.175-0.142-0.516-0.313-1.022-0.506c-0.481-0.18-0.824-0.338-1.027-0.47c-0.203-0.134-0.354-0.286-0.453-0.456
		c-0.099-0.17-0.149-0.373-0.149-0.608c0-0.422,0.17-0.755,0.514-0.999c0.343-0.245,0.813-0.366,1.41-0.366
		c0.558,0,1.103,0.112,1.633,0.341l-0.277,0.636c-0.521-0.213-0.991-0.321-1.413-0.321c-0.372,0-0.65,0.059-0.839,0.174
		c-0.19,0.118-0.286,0.278-0.286,0.482c0,0.139,0.037,0.256,0.109,0.354c0.07,0.098,0.185,0.189,0.341,0.279
		c0.157,0.088,0.459,0.216,0.906,0.383c0.613,0.222,1.028,0.449,1.244,0.674C142.216,115.55,142.325,115.833,142.325,116.178z"/>
	<path fill="#2A2A2A" d="M145.784,117.683c-0.765,0-1.367-0.232-1.809-0.698c-0.443-0.466-0.665-1.113-0.665-1.94
		c0-0.834,0.206-1.497,0.616-1.988c0.412-0.49,0.963-0.736,1.655-0.736c0.648,0,1.161,0.214,1.537,0.64
		c0.379,0.427,0.568,0.99,0.568,1.688v0.494h-3.564c0.015,0.608,0.169,1.068,0.461,1.383c0.29,0.316,0.7,0.473,1.229,0.473
		c0.556,0,1.108-0.116,1.652-0.35v0.7c-0.277,0.119-0.539,0.204-0.785,0.257C146.431,117.656,146.133,117.683,145.784,117.683z
		 M145.571,112.977c-0.415,0-0.746,0.135-0.995,0.405c-0.246,0.27-0.393,0.646-0.436,1.122h2.706c0-0.493-0.11-0.87-0.331-1.132
		C146.295,113.108,145.981,112.977,145.571,112.977z"/>
	<path fill="#2A2A2A" d="M152.562,117.588v-3.346c0-0.422-0.096-0.736-0.288-0.944c-0.192-0.207-0.493-0.31-0.901-0.31
		c-0.542,0-0.938,0.146-1.19,0.438c-0.251,0.293-0.377,0.775-0.377,1.449v2.713h-0.784v-5.173h0.637l0.126,0.708h0.039
		c0.159-0.255,0.385-0.451,0.674-0.592c0.29-0.14,0.612-0.21,0.968-0.21c0.623,0,1.093,0.15,1.406,0.452
		c0.315,0.301,0.473,0.781,0.473,1.441v3.375H152.562z M151.977,111.722c-0.135,0-0.268-0.029-0.397-0.088
		c-0.127-0.058-0.255-0.122-0.378-0.192c-0.125-0.072-0.245-0.135-0.361-0.194c-0.112-0.058-0.225-0.086-0.33-0.086
		c-0.158,0-0.278,0.045-0.357,0.14c-0.08,0.095-0.143,0.238-0.186,0.431h-0.462c0.041-0.384,0.151-0.68,0.333-0.895
		c0.181-0.216,0.415-0.323,0.701-0.323c0.145,0,0.283,0.029,0.42,0.086c0.135,0.06,0.263,0.124,0.387,0.194
		c0.122,0.071,0.24,0.135,0.354,0.194c0.112,0.059,0.221,0.086,0.321,0.086c0.154,0,0.269-0.046,0.343-0.139
		c0.077-0.093,0.138-0.238,0.185-0.433h0.466c-0.04,0.383-0.149,0.679-0.328,0.894C152.509,111.614,152.272,111.722,151.977,111.722
		z"/>
	<path fill="#2A2A2A" d="M158.137,117.588l-0.157-0.736h-0.036c-0.26,0.325-0.516,0.544-0.773,0.659
		c-0.256,0.114-0.576,0.172-0.96,0.172c-0.513,0-0.916-0.133-1.206-0.396c-0.292-0.263-0.438-0.642-0.438-1.128
		c0-1.043,0.835-1.59,2.505-1.642l0.878-0.027v-0.322c0-0.405-0.087-0.705-0.261-0.9c-0.175-0.194-0.455-0.291-0.837-0.291
		c-0.431,0-0.92,0.133-1.465,0.397l-0.239-0.601c0.255-0.136,0.535-0.246,0.839-0.324c0.303-0.08,0.608-0.119,0.913-0.119
		c0.616,0,1.074,0.138,1.371,0.412c0.296,0.274,0.447,0.712,0.447,1.316v3.531H158.137L158.137,117.588z M156.366,117.035
		c0.487,0,0.871-0.133,1.148-0.399c0.278-0.268,0.417-0.643,0.417-1.124v-0.468l-0.784,0.033c-0.621,0.022-1.071,0.119-1.347,0.291
		c-0.274,0.171-0.415,0.437-0.415,0.8c0,0.284,0.088,0.499,0.259,0.646C155.817,116.962,156.058,117.035,156.366,117.035z"/>
	<path fill="#2A2A2A" d="M163.853,116.895h-0.042c-0.363,0.526-0.903,0.788-1.623,0.788c-0.678,0-1.203-0.232-1.58-0.693
		c-0.377-0.464-0.563-1.121-0.563-1.975c0-0.853,0.188-1.514,0.564-1.987c0.38-0.471,0.904-0.708,1.578-0.708
		c0.701,0,1.24,0.255,1.612,0.766h0.062l-0.033-0.374l-0.018-0.362v-2.106h0.783v7.345h-0.638L163.853,116.895z M162.286,117.026
		c0.534,0,0.922-0.144,1.161-0.437c0.242-0.29,0.363-0.761,0.363-1.409v-0.166c0-0.731-0.123-1.255-0.367-1.568
		c-0.244-0.313-0.634-0.47-1.168-0.47c-0.459,0-0.809,0.179-1.056,0.535c-0.244,0.359-0.364,0.862-0.364,1.513
		c0,0.661,0.12,1.16,0.363,1.497C161.459,116.858,161.816,117.026,162.286,117.026z"/>
	<path fill="#2A2A2A" d="M170.719,114.997c0,0.843-0.211,1.502-0.636,1.975c-0.424,0.473-1.011,0.711-1.759,0.711
		c-0.465,0-0.875-0.109-1.234-0.326c-0.358-0.217-0.637-0.528-0.83-0.935c-0.195-0.406-0.293-0.882-0.293-1.426
		c0-0.843,0.211-1.5,0.633-1.97c0.423-0.47,1.006-0.706,1.756-0.706c0.723,0,1.299,0.241,1.725,0.722
		C170.506,113.524,170.719,114.175,170.719,114.997z M166.779,114.997c0,0.661,0.133,1.165,0.396,1.511
		c0.266,0.345,0.652,0.519,1.166,0.519c0.513,0,0.902-0.171,1.168-0.516c0.266-0.344,0.398-0.848,0.398-1.513
		c0-0.658-0.133-1.157-0.398-1.499c-0.266-0.341-0.66-0.512-1.18-0.512c-0.512,0-0.9,0.168-1.158,0.504
		C166.908,113.827,166.779,114.329,166.779,114.997z"/>
	<path fill="#2A2A2A" d="M174.453,112.32c0.23,0,0.437,0.02,0.619,0.058l-0.111,0.727c-0.211-0.048-0.4-0.072-0.565-0.072
		c-0.417,0-0.776,0.171-1.071,0.511c-0.299,0.341-0.447,0.764-0.447,1.27v2.775h-0.784v-5.173h0.646l0.09,0.958h0.037
		c0.192-0.336,0.424-0.596,0.695-0.78C173.832,112.412,174.128,112.32,174.453,112.32z"/>
	<path fill="#2A2A2A" d="M183.88,110.687v4.466c0,0.787-0.238,1.405-0.713,1.853c-0.476,0.451-1.129,0.677-1.959,0.677
		c-0.831,0-1.475-0.227-1.929-0.681c-0.455-0.453-0.682-1.076-0.682-1.868v-4.447h0.802v4.504c0,0.574,0.158,1.018,0.472,1.326
		c0.315,0.308,0.777,0.463,1.387,0.463c0.583,0,1.032-0.155,1.346-0.465c0.316-0.31,0.474-0.754,0.474-1.334v-4.493L183.88,110.687
		L183.88,110.687z"/>
	<path fill="#2A2A2A" d="M190.297,117.588h-0.908l-1.857-3.035l-1.889,3.035h-0.849l2.295-3.606l-2.138-3.295h0.887l1.715,2.733
		l1.728-2.733h0.853l-2.137,3.267L190.297,117.588z"/>
	<path fill="#2A2A2A" d="M197.017,116.178c0,0.481-0.181,0.853-0.541,1.113c-0.356,0.261-0.861,0.392-1.509,0.392
		c-0.685,0-1.221-0.109-1.605-0.326v-0.727c0.25,0.126,0.517,0.225,0.8,0.298c0.284,0.072,0.561,0.107,0.824,0.107
		c0.41,0,0.723-0.063,0.943-0.195c0.222-0.131,0.33-0.33,0.33-0.597c0-0.202-0.088-0.375-0.262-0.518
		c-0.174-0.142-0.515-0.313-1.022-0.506c-0.48-0.18-0.823-0.338-1.027-0.47c-0.201-0.134-0.353-0.286-0.452-0.456
		c-0.098-0.17-0.146-0.373-0.146-0.608c0-0.422,0.171-0.755,0.513-0.999c0.343-0.245,0.814-0.366,1.412-0.366
		c0.557,0,1.101,0.112,1.632,0.341l-0.277,0.636c-0.52-0.213-0.99-0.321-1.411-0.321c-0.373,0-0.652,0.059-0.842,0.174
		c-0.188,0.118-0.284,0.278-0.284,0.482c0,0.139,0.038,0.256,0.109,0.354c0.069,0.098,0.186,0.189,0.341,0.279
		c0.157,0.088,0.459,0.216,0.907,0.383c0.613,0.222,1.027,0.449,1.245,0.674C196.908,115.55,197.017,115.833,197.017,116.178z"/>
	<path fill="#2A2A2A" d="M200.475,117.683c-0.764,0-1.367-0.232-1.809-0.698c-0.444-0.466-0.666-1.113-0.666-1.94
		c0-0.834,0.208-1.497,0.617-1.988c0.41-0.49,0.963-0.736,1.655-0.736c0.646,0,1.161,0.214,1.537,0.64
		c0.38,0.427,0.565,0.99,0.565,1.688v0.494h-3.562c0.016,0.608,0.168,1.068,0.46,1.383c0.292,0.316,0.699,0.473,1.229,0.473
		c0.559,0,1.109-0.116,1.653-0.35v0.7c-0.278,0.119-0.538,0.204-0.785,0.257C201.121,117.656,200.822,117.683,200.475,117.683z
		 M200.263,112.977c-0.416,0-0.747,0.135-0.994,0.405c-0.248,0.27-0.394,0.646-0.438,1.122h2.706c0-0.493-0.111-0.87-0.33-1.132
		C200.986,113.108,200.672,112.977,200.263,112.977z"/>
	<path fill="#2A2A2A" d="M207.253,117.588v-3.346c0-0.422-0.096-0.736-0.287-0.944c-0.193-0.207-0.494-0.31-0.902-0.31
		c-0.543,0-0.938,0.146-1.19,0.438c-0.25,0.293-0.377,0.775-0.377,1.449v2.713h-0.782v-5.173h0.638l0.127,0.708h0.036
		c0.16-0.255,0.387-0.451,0.675-0.592c0.289-0.14,0.612-0.21,0.967-0.21c0.622,0,1.092,0.15,1.407,0.452
		c0.314,0.301,0.471,0.781,0.471,1.441v3.375H207.253z"/>
	<path fill="#2A2A2A" d="M209.581,111.013c0-0.178,0.042-0.31,0.132-0.393c0.087-0.084,0.198-0.126,0.329-0.126
		c0.127,0,0.236,0.042,0.327,0.127c0.09,0.086,0.136,0.215,0.136,0.391c0,0.176-0.046,0.308-0.136,0.396
		c-0.091,0.086-0.2,0.13-0.327,0.13c-0.131,0-0.242-0.044-0.329-0.13C209.623,111.32,209.581,111.188,209.581,111.013z
		 M210.429,117.588h-0.783v-5.173h0.783V117.588z"/>
	<path fill="#2A2A2A" d="M216.557,114.997c0,0.843-0.214,1.502-0.638,1.975c-0.425,0.473-1.012,0.711-1.761,0.711
		c-0.462,0-0.873-0.109-1.231-0.326c-0.358-0.217-0.637-0.528-0.832-0.935c-0.192-0.406-0.291-0.882-0.291-1.426
		c0-0.843,0.21-1.5,0.632-1.97s1.006-0.706,1.755-0.706c0.725,0,1.301,0.241,1.728,0.722
		C216.342,113.524,216.557,114.175,216.557,114.997z M212.616,114.997c0,0.661,0.132,1.165,0.397,1.511
		c0.262,0.345,0.648,0.519,1.162,0.519c0.515,0,0.903-0.171,1.17-0.516c0.266-0.344,0.398-0.848,0.398-1.513
		c0-0.658-0.133-1.157-0.398-1.499c-0.267-0.341-0.659-0.512-1.181-0.512c-0.512,0-0.898,0.168-1.159,0.504
		C212.746,113.827,212.616,114.329,212.616,114.997z"/>
	<path fill="#2A2A2A" d="M220.289,112.32c0.23,0,0.436,0.02,0.619,0.058l-0.109,0.727c-0.213-0.048-0.402-0.072-0.566-0.072
		c-0.42,0-0.777,0.171-1.072,0.511c-0.299,0.341-0.447,0.764-0.447,1.27v2.775h-0.783v-5.173h0.646l0.089,0.958h0.036
		c0.194-0.336,0.424-0.596,0.694-0.78C219.668,112.412,219.964,112.32,220.289,112.32z"/>
</g>
<path fill="#2A2A2A" d="M120.665,137.436c0,0.52-0.425,0.943-0.943,0.943h-13.752c-0.519,0-0.943-0.424-0.943-0.943
	c0-0.518,0.425-0.943,0.943-0.943h13.752C120.24,136.493,120.665,136.918,120.665,137.436z"/>
<path fill="#2A2A2A" d="M83.928,147.693h57.835v71.542c0.319-0.079,0.649-0.107,0.983-0.081v-72.445H82.944l0.983,1.727V147.693z"/>
<path fill="#2A2A2A" d="M95.139,223.616c7.187-0.252,14.449,0.185,21.642,0.305c3.433,0.06,6.818,0.104,10.207,0.058l-43.06-75.543
	v74.414C87.277,224.27,91.957,223.729,95.139,223.616z"/>
<path fill="#2A2A2A" d="M79.271,194.459v24.851c0.351,0.103,0.686,0.252,0.983,0.458V144.6c0-12.211,7.891-12.833,30.705-12.833
	h3.772c22.814,0,30.705,0.621,30.705,12.833v76.387c0.147,0.315,0.26,0.662,0.305,1.057c0.082,0.74,0.202,1.471,0.34,2.193
	c0.114,0.035,0.226,0.079,0.34,0.114v-54.52c0.376-0.03,0.678-0.438,0.678-0.938v-7.983c0-0.499-0.303-0.909-0.678-0.938V144.6
	c0-14.015-10.447-13.816-33.576-13.816c-23.128,0-33.574-0.199-33.574,13.816v28.694c-0.341,0.047-0.612,0.445-0.612,0.932v19.302
	C78.659,194.014,78.929,194.413,79.271,194.459z"/>
<g>
	<path fill="#2A2A2A" d="M208.991,137.572c0,0.529-0.425,0.962-0.941,0.962h-13.751c-0.52,0-0.944-0.433-0.944-0.962
		c0-0.531,0.425-0.962,0.944-0.962h13.751C208.566,136.61,208.991,137.041,208.991,137.572z"/>
	<path fill="#2A2A2A" d="M172.256,218.017v-69.979h57.836v68.772c0.328,0,0.654,0,0.982,0.003v-69.778h-59.803v71.001
		C171.604,218.025,171.934,218.021,172.256,218.017z"/>
	<path fill="#2A2A2A" d="M167.599,195.756v23.039c0.305-0.167,0.635-0.299,0.984-0.401v-73.512c0-12.46,7.89-13.095,30.705-13.095
		h3.771c22.815,0,30.704,0.635,30.704,13.095v71.934c0.329,0,0.655,0.002,0.985,0.002v-46.19c0.377-0.033,0.679-0.447,0.679-0.958
		v-8.145c0-0.511-0.305-0.928-0.679-0.958v-15.685c0-14.301-10.445-14.098-33.576-14.098c-23.127,0-33.574-0.203-33.574,14.098
		v29.278c-0.342,0.048-0.614,0.454-0.614,0.951v19.693C166.984,195.303,167.257,195.708,167.599,195.756z"/>
</g>
<path fill="#FFFFFF" d="M95.139,223.616c7.187-0.252,14.449,0.185,21.642,0.305c5.917,0.102,11.691,0.167,17.59-0.212
	c1.72-0.114,3.52-0.237,5.32-0.241c0.003-0.474,0.009-0.947,0.009-1.425c0.004-1.615,0.935-2.534,2.063-2.808v-71.542H83.928v75.156
	C87.277,224.27,91.957,223.729,95.139,223.616z"/>
<path fill="#EDEEF2" d="M132.697,231.533c2.485,0.092,4.97,0.188,7.454,0.292c0.006-0.202,0.011-0.403,0.015-0.609
	C137.678,231.338,135.188,231.441,132.697,231.533z"/>
<rect x="172.289" y="147.693" fill="#2A2A2A" stroke="#2A2A2A" stroke-width="0.5508" stroke-miterlimit="10" width="57.836" height="75.097"/>
<rect x="86.201" y="159.891" fill="#EFEFEF" width="52.559" height="9.736"/>
<path id="magnifier-icon" fill="#2A2A2A" d="M92.672,166.145l-1.241-1.24c0.183-0.285,0.287-0.625,0.287-0.988
	c0-1.02-0.829-1.846-1.849-1.846c-1.019,0-1.848,0.826-1.848,1.846c0,1.021,0.829,1.85,1.848,1.85c0.346,0,0.669-0.095,0.944-0.261
	l1.25,1.249L92.672,166.145z M88.709,163.916c0-0.639,0.521-1.158,1.16-1.158c0.64,0,1.16,0.52,1.16,1.158
	c0,0.64-0.521,1.159-1.16,1.159C89.23,165.075,88.709,164.558,88.709,163.916z"/>
<rect x="86.201" y="174.752" fill="#2A2A2A" width="52.559" height="11.272"/>
<rect x="86.201" y="187.048" fill="#2A2A2A" width="52.559" height="11.275"/>
<rect x="86.087" y="199.22" fill="#2A2A2A" width="52.559" height="11.272"/>
<g>
	<path fill="#FFFFFF" d="M99.683,180.515c0,0.948-0.578,1.455-1.283,1.455c-0.732,0-1.241-0.57-1.241-1.403
		c0-0.879,0.541-1.45,1.278-1.45C99.196,179.113,99.683,179.692,99.683,180.515z M97.536,180.556c0,0.597,0.32,1.125,0.885,1.125
		c0.565,0,0.885-0.522,0.885-1.148c0-0.553-0.287-1.127-0.88-1.127C97.833,179.405,97.536,179.955,97.536,180.556z"/>
	<path fill="#FFFFFF" d="M100.135,180.589c0-0.254-0.008-0.456-0.017-0.646h0.32l0.021,0.34h0.008c0.143-0.241,0.38-0.38,0.705-0.38
		c0.483,0,0.845,0.406,0.845,1.004c0,0.713-0.439,1.065-0.906,1.065c-0.262,0-0.492-0.114-0.611-0.313h-0.007v1.081h-0.357V180.589z
		 M100.492,181.119c0,0.053,0.003,0.101,0.016,0.146c0.066,0.25,0.282,0.421,0.542,0.421c0.381,0,0.602-0.311,0.602-0.763
		c0-0.396-0.208-0.736-0.589-0.736c-0.246,0-0.479,0.173-0.545,0.443c-0.012,0.046-0.024,0.099-0.024,0.145V181.119z"/>
	<path fill="#FFFFFF" d="M103.882,181.855c-0.094,0.046-0.304,0.114-0.569,0.114c-0.6,0-0.989-0.403-0.989-1.011
		c0-0.609,0.419-1.057,1.066-1.057c0.213,0,0.401,0.053,0.5,0.105l-0.083,0.274c-0.085-0.044-0.22-0.095-0.417-0.095
		c-0.455,0-0.701,0.34-0.701,0.752c0,0.458,0.294,0.741,0.688,0.741c0.205,0,0.339-0.051,0.442-0.095L103.882,181.855z"/>
	<path fill="#FFFFFF" d="M104.707,179.386c0,0.122-0.087,0.221-0.229,0.221c-0.132,0-0.218-0.099-0.218-0.221
		c0-0.123,0.09-0.226,0.226-0.226C104.616,179.16,104.707,179.259,104.707,179.386z M104.305,181.926v-1.983h0.36v1.983H104.305z"/>
	<path fill="#FFFFFF" d="M107.058,180.92c0,0.729-0.512,1.05-0.987,1.05c-0.533,0-0.95-0.393-0.95-1.02
		c0-0.659,0.438-1.048,0.983-1.048C106.673,179.902,107.058,180.314,107.058,180.92z M105.488,180.939
		c0,0.434,0.247,0.763,0.599,0.763c0.343,0,0.602-0.326,0.602-0.771c0-0.338-0.168-0.759-0.594-0.759
		C105.673,180.172,105.488,180.566,105.488,180.939z M106.627,179.087l-0.499,0.586h-0.254l0.356-0.586H106.627z"/>
	<path fill="#FFFFFF" d="M107.514,180.479c0-0.209-0.004-0.375-0.016-0.537h0.32l0.021,0.328h0.008
		c0.099-0.184,0.327-0.368,0.655-0.368c0.275,0,0.7,0.162,0.7,0.842v1.182h-0.36v-1.145c0-0.319-0.119-0.585-0.459-0.585
		c-0.233,0-0.417,0.169-0.483,0.37c-0.016,0.042-0.024,0.105-0.024,0.167v1.192h-0.361V180.479z"/>
	<path fill="#FFFFFF" d="M111.118,181.056l-0.287,0.87h-0.37l0.944-2.762h0.425l0.942,2.762h-0.382l-0.294-0.87H111.118z
		 M112.028,180.779l-0.276-0.796c-0.06-0.18-0.102-0.344-0.143-0.504H111.6c-0.041,0.16-0.082,0.331-0.139,0.5l-0.271,0.8H112.028
		L112.028,180.779z"/>
	<path fill="#FFFFFF" d="M133.29,180.95l-1.901,0.976v-0.283l1.614-0.804v-0.007l-1.614-0.802v-0.283l1.901,0.971V180.95z"/>
</g>
<g>
	<path fill="#FFFFFF" d="M99.827,193.008c0,0.944-0.577,1.453-1.281,1.453c-0.733,0-1.243-0.57-1.243-1.405
		c0-0.877,0.541-1.451,1.279-1.451C99.339,191.604,99.827,192.184,99.827,193.008z M97.68,193.047c0,0.594,0.319,1.122,0.885,1.122
		c0.565,0,0.884-0.52,0.884-1.146c0-0.555-0.287-1.129-0.88-1.129C97.974,191.896,97.68,192.446,97.68,193.047z"/>
	<path fill="#FFFFFF" d="M100.279,193.08c0-0.254-0.008-0.458-0.016-0.648h0.32l0.021,0.342h0.007
		c0.144-0.243,0.381-0.382,0.704-0.382c0.484,0,0.846,0.408,0.846,1.004c0,0.713-0.438,1.065-0.906,1.065
		c-0.263,0-0.492-0.114-0.61-0.312h-0.008v1.076h-0.357L100.279,193.08L100.279,193.08z M100.636,193.608
		c0,0.053,0.004,0.103,0.016,0.146c0.066,0.252,0.282,0.423,0.541,0.423c0.381,0,0.602-0.311,0.602-0.767
		c0-0.393-0.209-0.734-0.59-0.734c-0.245,0-0.479,0.173-0.545,0.445c-0.012,0.043-0.024,0.099-0.024,0.142V193.608z"/>
	<path fill="#FFFFFF" d="M104.026,194.347c-0.095,0.044-0.304,0.114-0.57,0.114c-0.599,0-0.987-0.405-0.987-1.013
		c0-0.611,0.417-1.057,1.064-1.057c0.213,0,0.402,0.055,0.5,0.105l-0.083,0.276c-0.085-0.046-0.22-0.095-0.417-0.095
		c-0.455,0-0.701,0.34-0.701,0.75c0,0.458,0.295,0.74,0.688,0.74c0.204,0,0.339-0.048,0.442-0.092L104.026,194.347z"/>
	<path fill="#FFFFFF" d="M104.85,191.874c0,0.123-0.087,0.222-0.23,0.222c-0.131,0-0.217-0.099-0.217-0.222
		c0-0.122,0.09-0.226,0.226-0.226C104.76,191.651,104.85,191.75,104.85,191.874z M104.448,194.415v-1.983h0.36v1.983H104.448z"/>
	<path fill="#FFFFFF" d="M107.202,193.406c0,0.734-0.512,1.055-0.988,1.055c-0.533,0-0.95-0.395-0.95-1.02
		c0-0.662,0.438-1.05,0.983-1.05C106.817,192.392,107.202,192.804,107.202,193.406z M105.632,193.429
		c0,0.434,0.246,0.763,0.598,0.763c0.344,0,0.603-0.324,0.603-0.771c0-0.336-0.168-0.757-0.594-0.757
		C105.817,192.663,105.632,193.056,105.632,193.429z M106.771,191.576l-0.499,0.585h-0.255l0.357-0.585H106.771z"/>
	<path fill="#FFFFFF" d="M107.657,192.968c0-0.208-0.004-0.37-0.016-0.536h0.32l0.021,0.328h0.008
		c0.098-0.184,0.328-0.368,0.655-0.368c0.274,0,0.702,0.164,0.702,0.844v1.18h-0.361v-1.143c0-0.319-0.119-0.587-0.459-0.587
		c-0.233,0-0.417,0.169-0.483,0.37c-0.017,0.046-0.024,0.107-0.024,0.169v1.19h-0.361L107.657,192.968L107.657,192.968z"/>
	<path fill="#FFFFFF" d="M110.814,191.694c0.155-0.034,0.405-0.061,0.651-0.061c0.357,0,0.586,0.061,0.754,0.201
		c0.144,0.107,0.233,0.271,0.233,0.486c0,0.272-0.18,0.505-0.467,0.607v0.011c0.262,0.063,0.57,0.281,0.57,0.69
		c0,0.239-0.095,0.421-0.238,0.551c-0.188,0.177-0.499,0.258-0.951,0.258c-0.246,0-0.433-0.015-0.552-0.03V191.694z
		 M111.172,192.826h0.323c0.373,0,0.594-0.2,0.594-0.468c0-0.319-0.242-0.451-0.602-0.451c-0.165,0-0.259,0.014-0.315,0.026V192.826
		z M111.172,194.146c0.073,0.013,0.17,0.018,0.298,0.018c0.369,0,0.708-0.137,0.708-0.539c0-0.373-0.323-0.531-0.713-0.531h-0.293
		V194.146z"/>
	<path fill="#FFFFFF" d="M133.146,193.441l-1.901,0.974v-0.281l1.614-0.804v-0.009l-1.614-0.803v-0.282l1.901,0.971V193.441z"/>
</g>
<g>
	<path fill="#FFFFFF" d="M99.749,204.471c0,0.945-0.577,1.455-1.282,1.455c-0.733,0-1.242-0.569-1.242-1.404
		c0-0.877,0.541-1.451,1.278-1.451C99.262,203.07,99.749,203.649,99.749,204.471z M97.602,204.513c0,0.596,0.32,1.122,0.885,1.122
		c0.565,0,0.884-0.521,0.884-1.146c0-0.555-0.286-1.126-0.88-1.126C97.897,203.362,97.602,203.91,97.602,204.513z"/>
	<path fill="#FFFFFF" d="M100.201,204.546c0-0.257-0.008-0.461-0.016-0.647h0.32l0.02,0.34h0.008
		c0.144-0.243,0.381-0.381,0.705-0.381c0.484,0,0.844,0.405,0.844,1.004c0,0.714-0.439,1.064-0.905,1.064
		c-0.262,0-0.492-0.115-0.61-0.311h-0.008v1.078h-0.356V204.546L100.201,204.546z M100.557,205.073c0,0.053,0.004,0.104,0.017,0.147
		c0.065,0.25,0.282,0.421,0.541,0.421c0.381,0,0.602-0.31,0.602-0.766c0-0.395-0.209-0.733-0.59-0.733
		c-0.245,0-0.478,0.173-0.544,0.442c-0.012,0.048-0.025,0.099-0.025,0.145L100.557,205.073L100.557,205.073z"/>
	<path fill="#FFFFFF" d="M103.947,205.811c-0.094,0.046-0.303,0.115-0.569,0.115c-0.599,0-0.988-0.407-0.988-1.012
		c0-0.612,0.417-1.057,1.065-1.057c0.212,0,0.401,0.053,0.5,0.104l-0.082,0.276c-0.085-0.046-0.221-0.096-0.419-0.096
		c-0.454,0-0.7,0.339-0.7,0.749c0,0.46,0.295,0.743,0.688,0.743c0.204,0,0.34-0.048,0.441-0.097L103.947,205.811z"/>
	<path fill="#FFFFFF" d="M104.771,203.34c0,0.125-0.085,0.222-0.229,0.222c-0.131,0-0.218-0.097-0.218-0.222
		c0-0.123,0.091-0.226,0.227-0.226C104.682,203.114,104.771,203.213,104.771,203.34z M104.37,205.88v-1.981h0.361v1.981H104.37z"/>
	<path fill="#FFFFFF" d="M107.124,204.872c0,0.734-0.512,1.054-0.987,1.054c-0.533,0-0.951-0.394-0.951-1.019
		c0-0.662,0.438-1.05,0.983-1.05C106.74,203.857,107.124,204.27,107.124,204.872z M105.555,204.892c0,0.437,0.246,0.763,0.599,0.763
		c0.344,0,0.603-0.324,0.603-0.77c0-0.335-0.169-0.758-0.595-0.758C105.739,204.127,105.555,204.521,105.555,204.892z
		 M106.694,203.042l-0.5,0.585h-0.254l0.355-0.585H106.694z"/>
	<path fill="#FFFFFF" d="M107.58,204.434c0-0.208-0.004-0.373-0.017-0.535h0.32l0.021,0.327h0.008
		c0.098-0.185,0.328-0.368,0.655-0.368c0.274,0,0.701,0.164,0.701,0.844v1.179h-0.36v-1.144c0-0.318-0.119-0.583-0.46-0.583
		c-0.233,0-0.417,0.166-0.483,0.368c-0.015,0.044-0.024,0.105-0.024,0.169v1.189h-0.36V204.434z"/>
	<path fill="#FFFFFF" d="M112.662,205.795c-0.126,0.065-0.392,0.131-0.728,0.131c-0.779,0-1.361-0.492-1.361-1.4
		c0-0.867,0.586-1.448,1.442-1.448c0.341,0,0.562,0.072,0.656,0.122l-0.09,0.29c-0.13-0.066-0.323-0.114-0.552-0.114
		c-0.648,0-1.079,0.412-1.079,1.14c0,0.68,0.39,1.109,1.057,1.109c0.221,0,0.443-0.046,0.586-0.116L112.662,205.795z"/>
	<path fill="#FFFFFF" d="M133.224,204.907l-1.902,0.973v-0.282l1.615-0.803v-0.009l-1.615-0.802v-0.283l1.902,0.972V204.907z"/>
</g>
<g>
	<path d="M86.476,151.109c0.194-0.047,0.507-0.077,0.814-0.077c0.446,0,0.732,0.077,0.943,0.252
		c0.179,0.134,0.291,0.339,0.291,0.609c0,0.34-0.225,0.63-0.583,0.758v0.016c0.329,0.077,0.712,0.349,0.712,0.86
		c0,0.298-0.118,0.527-0.297,0.693c-0.236,0.22-0.625,0.32-1.188,0.32c-0.307,0-0.543-0.02-0.692-0.039L86.476,151.109
		L86.476,151.109z M86.922,152.522h0.404c0.466,0,0.743-0.25,0.743-0.583c0-0.399-0.303-0.563-0.754-0.563
		c-0.205,0-0.322,0.016-0.394,0.031V152.522z M86.922,154.173c0.093,0.016,0.215,0.02,0.373,0.02c0.462,0,0.887-0.169,0.887-0.668
		c0-0.469-0.404-0.668-0.892-0.668h-0.368V154.173z"/>
	<path d="M89.253,151.109c0.195-0.047,0.508-0.077,0.814-0.077c0.446,0,0.733,0.077,0.943,0.252c0.18,0.134,0.292,0.339,0.292,0.609
		c0,0.34-0.226,0.63-0.584,0.758v0.016c0.328,0.077,0.712,0.349,0.712,0.86c0,0.298-0.118,0.527-0.297,0.693
		c-0.236,0.22-0.625,0.32-1.188,0.32c-0.307,0-0.543-0.02-0.691-0.039V151.109z M89.699,152.522h0.406
		c0.465,0,0.743-0.25,0.743-0.583c0-0.399-0.303-0.563-0.754-0.563c-0.204,0-0.321,0.016-0.394,0.031V152.522z M89.699,154.173
		c0.093,0.016,0.216,0.02,0.375,0.02c0.46,0,0.886-0.169,0.886-0.668c0-0.469-0.405-0.668-0.891-0.668H89.7L89.699,154.173
		L89.699,154.173z"/>
	<path d="M92.025,151.06h0.452v3.078h1.475v0.373h-1.926V151.06z"/>
	<path d="M94.471,150.966c-0.119,0.431-0.339,0.984-0.478,1.22l-0.287,0.03c0.107-0.303,0.246-0.829,0.303-1.197L94.471,150.966z"/>
	<path d="M95.08,153.423l-0.358,1.088H94.26l1.178-3.452h0.532l1.178,3.452h-0.476l-0.368-1.088H95.08z M96.216,153.077
		l-0.343-0.993c-0.078-0.226-0.128-0.431-0.179-0.631h-0.011c-0.051,0.2-0.103,0.414-0.174,0.625l-0.337,0.999H96.216
		L96.216,153.077z"/>
	<path d="M97.657,151.1c0.215-0.037,0.497-0.067,0.855-0.067c0.44,0,0.763,0.103,0.969,0.288c0.184,0.163,0.303,0.414,0.303,0.722
		c0,0.313-0.093,0.56-0.268,0.738c-0.241,0.251-0.619,0.378-1.055,0.378c-0.133,0-0.256-0.005-0.358-0.031v1.384h-0.446V151.1z
		 M98.103,152.766c0.098,0.024,0.221,0.035,0.369,0.035c0.537,0,0.865-0.267,0.865-0.732c0-0.461-0.328-0.682-0.813-0.682
		c-0.195,0-0.344,0.016-0.42,0.036V152.766z"/>
	<path d="M100.384,151.1c0.214-0.037,0.496-0.067,0.855-0.067c0.44,0,0.764,0.103,0.968,0.288c0.184,0.163,0.302,0.414,0.302,0.722
		c0,0.313-0.092,0.56-0.267,0.738c-0.239,0.251-0.62,0.378-1.054,0.378c-0.134,0-0.256-0.005-0.359-0.031v1.384h-0.445V151.1z
		 M100.829,152.766c0.098,0.024,0.221,0.035,0.369,0.035c0.538,0,0.866-0.267,0.866-0.732c0-0.461-0.328-0.682-0.813-0.682
		c-0.196,0-0.343,0.016-0.421,0.036V152.766z"/>
</g>
<rect x="85.878" y="211.518" fill="#2A2A2A" width="52.559" height="11.272"/>
<g>
	<path fill="#FFFFFF" d="M99.671,216.758c0,0.947-0.577,1.454-1.281,1.454c-0.734,0-1.242-0.568-1.242-1.403
		c0-0.877,0.541-1.451,1.278-1.451C99.184,215.357,99.671,215.935,99.671,216.758z M97.525,216.798c0,0.594,0.319,1.124,0.885,1.124
		s0.885-0.521,0.885-1.146c0-0.552-0.287-1.126-0.881-1.126C97.82,215.649,97.525,216.197,97.525,216.798z"/>
	<path fill="#FFFFFF" d="M100.124,216.831c0-0.255-0.008-0.459-0.017-0.647h0.319l0.021,0.34h0.008
		c0.144-0.238,0.381-0.381,0.705-0.381c0.484,0,0.845,0.407,0.845,1.006c0,0.715-0.438,1.067-0.906,1.067
		c-0.262,0-0.491-0.116-0.61-0.312h-0.009v1.074h-0.355L100.124,216.831L100.124,216.831z M100.48,217.361
		c0,0.055,0.004,0.103,0.017,0.148c0.066,0.248,0.282,0.421,0.541,0.421c0.382,0,0.603-0.311,0.603-0.767
		c0-0.393-0.209-0.732-0.59-0.732c-0.245,0-0.479,0.171-0.545,0.44c-0.012,0.046-0.025,0.099-0.025,0.145V217.361z"/>
	<path fill="#FFFFFF" d="M103.87,218.1c-0.094,0.044-0.303,0.112-0.569,0.112c-0.598,0-0.987-0.406-0.987-1.011
		c0-0.609,0.418-1.059,1.066-1.059c0.212,0,0.4,0.055,0.499,0.109l-0.081,0.271c-0.086-0.044-0.222-0.092-0.417-0.092
		c-0.456,0-0.702,0.34-0.702,0.75c0,0.458,0.295,0.74,0.689,0.74c0.205,0,0.341-0.05,0.443-0.092L103.87,218.1z"/>
	<path fill="#FFFFFF" d="M104.695,215.627c0,0.125-0.085,0.222-0.229,0.222c-0.131,0-0.218-0.097-0.218-0.222
		c0-0.122,0.091-0.224,0.227-0.224C104.604,215.403,104.695,215.5,104.695,215.627z M104.294,218.17v-1.986h0.36v1.986H104.294z"/>
	<path fill="#FFFFFF" d="M107.047,217.161c0,0.732-0.512,1.055-0.987,1.055c-0.533,0-0.95-0.395-0.95-1.023
		c0-0.66,0.438-1.05,0.983-1.05C106.662,216.143,107.047,216.559,107.047,217.161z M105.478,217.182
		c0,0.434,0.246,0.763,0.598,0.763c0.344,0,0.603-0.324,0.603-0.77c0-0.338-0.169-0.761-0.594-0.761
		C105.662,216.414,105.478,216.809,105.478,217.182z M106.617,215.329l-0.5,0.585h-0.254l0.357-0.585H106.617z"/>
	<path fill="#FFFFFF" d="M107.502,216.721c0-0.208-0.004-0.37-0.015-0.537h0.319l0.02,0.329h0.009
		c0.099-0.184,0.328-0.37,0.657-0.37c0.274,0,0.699,0.166,0.699,0.846v1.182h-0.361v-1.145c0-0.319-0.118-0.585-0.458-0.585
		c-0.233,0-0.418,0.167-0.484,0.368c-0.016,0.044-0.024,0.107-0.024,0.167v1.194h-0.36V216.721z"/>
	<path fill="#FFFFFF" d="M111.105,217.298l-0.286,0.872h-0.369l0.942-2.764h0.427l0.941,2.764h-0.38l-0.296-0.872H111.105z
		 M112.016,217.021l-0.274-0.796c-0.062-0.18-0.102-0.342-0.145-0.504h-0.007c-0.042,0.162-0.082,0.331-0.14,0.502l-0.271,0.798
		H112.016L112.016,217.021z"/>
	<path fill="#FFFFFF" d="M133.278,217.192l-1.901,0.978v-0.285l1.615-0.805v-0.006l-1.615-0.805v-0.28l1.901,0.969V217.192z"/>
</g>
<rect x="175.07" y="154.511" fill="#FFFFFF" width="22.93" height="21.267"/>
<rect x="205.092" y="154.511" fill="#FFFFFF" width="22.929" height="21.267"/>
<rect x="175.287" y="180.943" fill="#FFFFFF" width="22.931" height="21.264"/>
<rect x="205.309" y="180.943" fill="#FFFFFF" width="22.927" height="21.264"/>
<rect x="175.287" y="207.18" fill="#FFFFFF" width="22.931" height="21.266"/>
<rect x="205.309" y="207.18" fill="#FFFFFF" width="22.927" height="21.266"/>
<g>
	<g>
		<path fill="#FFFFFF" d="M226.087,182.395c0,6.12,0,12.244,0,18.363c-6.123,0-12.245,0-18.364,0c0-4.502,0-9.101,0-13.664
			c0-1.515-0.146-3.104,0-4.557c0.004-0.046-0.058-0.155,0.069-0.143C213.893,182.395,219.989,182.395,226.087,182.395z
			 M209.516,185.801c0,3.899,0,7.797,0,11.695c2.763,0,5.522,0,8.286,0c0-0.479,0-0.957,0-1.436
			c-2.26-0.023-4.616,0.049-6.814-0.037c0.022-2.952-0.05-6.003,0.036-8.895c0.763,0.167,1.813-0.221,2.618,0
			c0.382,0.105,0.834,0.833,1.22,1.111c1.681,1.21,5.229,0.276,7.999,0.574c0,1.315,0,2.631,0,3.945c0.49,0,0.98,0,1.471,0
			c0-1.793,0-3.588,0-5.381c-2.144,0-4.2,0-6.349,0c-0.731,0-1.447,0.077-1.973-0.143c-0.31-0.129-0.606-0.488-0.896-0.754
			c-0.31-0.285-0.603-0.719-0.896-0.789c-0.324-0.079-0.77,0-1.148,0c-1.212,0-2.351,0-3.516,0
			C209.51,185.698,209.512,185.751,209.516,185.801z M219.201,194.195c-0.086,0.406-0.013,0.967-0.036,1.434
			c1.721,0,3.443,0,5.164,0c0-0.478,0-0.955,0-1.434C222.621,194.195,220.91,194.195,219.201,194.195z"/>
		<path d="M209.552,185.695c1.164,0,2.303,0,3.515,0c0.38,0,0.825-0.078,1.146,0c0.296,0.07,0.589,0.502,0.898,0.787
			c0.289,0.27,0.587,0.625,0.897,0.754c0.524,0.22,1.24,0.143,1.974,0.143c2.147,0,4.202,0,6.347,0c0,1.793,0,3.588,0,5.381
			c-0.489,0-0.98,0-1.47,0c0-1.314,0-2.63,0-3.945c-2.771-0.298-6.318,0.638-8.002-0.574c-0.386-0.278-0.835-1.006-1.217-1.111
			c-0.81-0.221-1.854,0.167-2.62,0c-0.084,2.892-0.013,5.942-0.036,8.896c2.201,0.084,4.556,0.012,6.814,0.035
			c0,0.479,0,0.958,0,1.436c-2.761,0-5.523,0-8.285,0c0-3.898,0-7.796,0-11.695C209.512,185.751,209.51,185.698,209.552,185.695z"/>
		<path d="M224.33,194.195c0,0.479,0,0.956,0,1.434c-1.722,0-3.444,0-5.165,0c0.023-0.467-0.05-1.027,0.036-1.434
			C220.91,194.195,222.621,194.195,224.33,194.195z"/>
	</g>
</g>
<g>
	<g>
		<path fill="#FFFFFF" d="M195.935,182.395c0,6.12,0,12.244,0,18.363c-6.121,0-12.243,0-18.364,0c0-4.502,0-9.101,0-13.664
			c0-1.515-0.146-3.104,0-4.557c0.004-0.046-0.057-0.155,0.071-0.143C183.739,182.395,189.837,182.395,195.935,182.395z
			 M190.554,185.264c-0.553-0.195-0.857-0.962-1.326-1.076c-0.343-0.083-0.819,0-1.221,0c-1.309,0-2.481,0-3.766,0
			c-0.43,0.303-0.773,0.969-1.363,1.111c-0.666,0.162-1.444-0.044-2.439,0.035c0,4.557,0,9.111,0,13.668c4.222,0,8.442,0,12.662,0
			c0-4.557,0-9.111,0-13.668C192.175,185.2,191.363,185.549,190.554,185.264z"/>
		<path d="M193.101,185.334c0,4.557,0,9.111,0,13.668c-4.222,0-8.443,0-12.662,0c0-4.557,0-9.111,0-13.668
			c0.995-0.079,1.773,0.129,2.439-0.035c0.59-0.143,0.934-0.809,1.363-1.111c1.284,0,2.457,0,3.766,0c0.401,0,0.878-0.083,1.221,0
			c0.469,0.112,0.773,0.881,1.326,1.076C191.363,185.549,192.175,185.2,193.101,185.334z M181.874,186.877c0,3.551,0,7.102,0,10.654
			c3.252,0,6.504,0,9.756,0c0-3.588,0-7.174,0-10.762c-0.62,0.136-1.393-0.178-2.045,0c-0.52,0.145-0.593,0.791-1.039,0.896
			c-0.509,0.125-1.309,0-1.758,0c-0.414,0-1.388,0.104-1.758,0c-0.403-0.109-0.598-0.789-1.039-0.896
			c-0.71-0.171-1.332,0.127-2.081,0C181.867,186.776,181.871,186.827,181.874,186.877z"/>
		<path fill="#FFFFFF" d="M181.91,186.77c0.747,0.127,1.371-0.171,2.081,0c0.441,0.107,0.636,0.787,1.039,0.896
			c0.37,0.104,1.344,0,1.758,0c0.449,0,1.249,0.125,1.758,0c0.447-0.107,0.52-0.752,1.039-0.896c0.652-0.178,1.426,0.136,2.045,0
			c0,3.588,0,7.174,0,10.762c-3.252,0-6.504,0-9.756,0c0-3.553,0-7.104,0-10.654C181.871,186.827,181.867,186.776,181.91,186.77z
			 M183.774,191.289c2.021,0,4.041,0,6.063,0c0-0.359,0-0.717,0-1.076c-2.01,0-4.018,0-6.027,0
			C183.727,190.502,183.799,190.943,183.774,191.289z M183.81,193.299c1.999,0,3.994,0,5.99,0c0.062-0.291,0.062-0.821,0-1.111
			c-1.996,0-3.991,0-5.99,0C183.75,192.475,183.754,193.008,183.81,193.299z M183.774,195.27c2.021,0,4.041,0,6.063,0
			c0-0.357,0-0.717,0-1.074c-2.01,0-4.018,0-6.027,0C183.727,194.48,183.799,194.923,183.774,195.27z"/>
		<path d="M183.81,190.213c2.012,0,4.02,0,6.029,0c0,0.359,0,0.717,0,1.078c-2.021,0-4.044,0-6.064,0
			C183.799,190.943,183.727,190.502,183.81,190.213z"/>
		<path d="M183.81,192.188c1.999,0,3.994,0,5.99,0c0.062,0.29,0.062,0.82,0,1.111c-1.996,0-3.991,0-5.99,0
			C183.754,193.008,183.75,192.475,183.81,192.188z"/>
		<path d="M183.81,194.195c2.012,0,4.02,0,6.029,0c0,0.357,0,0.717,0,1.074c-2.021,0-4.044,0-6.064,0
			C183.799,194.923,183.727,194.48,183.81,194.195z"/>
	</g>
</g>
<g>
	<g>
		<path fill="#FFFFFF" d="M195.487,208.379c0,6.122,0,12.246,0,18.365c-6.123,0-12.245,0-18.366,0c0-4.504,0-9.101,0-13.666
			c0-1.513-0.146-3.102,0-4.557c0.006-0.044-0.054-0.155,0.073-0.143C183.291,208.379,189.39,208.379,195.487,208.379z
			 M187.415,212.971c-1.416,0.125-2.212,0.91-2.939,1.793c-1.422-0.66-2.941,0.25-3.051,1.686c-1.489,0.28-2.513,1.335-2.509,2.869
			c0.004,1.451,1.036,2.723,2.618,2.869c1.344,0.125,3.075,0,4.808,0c1.707,0,3.447,0.143,4.807,0
			c1.59-0.162,2.602-1.49,2.581-2.902c-0.019-1.501-0.89-2.229-2.009-2.766C191.439,214.441,189.863,212.756,187.415,212.971z"/>
		<path d="M191.72,216.52c1.118,0.537,1.988,1.265,2.01,2.766c0.021,1.414-0.991,2.74-2.583,2.902c-1.36,0.143-3.098,0-4.806,0
			c-1.731,0-3.463,0.129-4.807,0c-1.582-0.145-2.614-1.416-2.618-2.869c-0.004-1.534,1.019-2.589,2.509-2.867
			c0.108-1.438,1.629-2.348,3.049-1.688c0.729-0.883,1.523-1.668,2.941-1.793C189.863,212.756,191.439,214.441,191.72,216.52z
			 M184.044,219.965c0.99-0.018,0.988-1.728-0.143-1.543C182.933,218.58,183.139,219.982,184.044,219.965z M186.411,219.965
			c0.771-0.013,0.898-1.004,0.538-1.363c-0.134-0.134-0.369-0.228-0.681-0.18C185.224,218.589,185.59,219.98,186.411,219.965z
			 M187.918,219.176c0,0.896,1.288,1.046,1.544,0.287c0.217-0.646-0.296-1.127-0.863-1.041
			C188.109,218.499,187.918,218.81,187.918,219.176z"/>
		<path fill="#FFFFFF" d="M183.901,218.422c1.131-0.185,1.133,1.525,0.143,1.543C183.139,219.982,182.933,218.58,183.901,218.422z"
			/>
		<path fill="#FFFFFF" d="M186.269,218.422c0.312-0.048,0.547,0.046,0.681,0.18c0.36,0.359,0.233,1.351-0.538,1.363
			C185.59,219.98,185.224,218.589,186.269,218.422z"/>
		<path fill="#FFFFFF" d="M188.599,218.422c0.567-0.086,1.08,0.395,0.863,1.041c-0.256,0.759-1.544,0.609-1.544-0.287
			C187.918,218.81,188.109,218.499,188.599,218.422z"/>
	</g>
</g>
<g>
	<g>
		<path fill="#FFFFFF" d="M225.135,208.379c0,6.122,0,12.246,0,18.365c-6.12,0-12.241,0-18.363,0c0-4.504,0-9.101,0-13.666
			c0-1.513-0.146-3.102,0-4.557c0.005-0.044-0.054-0.155,0.07-0.143C212.941,208.379,219.039,208.379,225.135,208.379z
			 M212.869,210.207c-0.89,0.523-2.127,1.479-3.155,2.189c-0.35,0.239-0.929,0.509-1.004,0.752c-0.104,0.32,0,0.971,0,1.363
			c0,1.4,0,2.751,0,4.09c2.09,1.813,4.246,3.77,6.346,5.596c0.106,0.092,0.852,0.791,0.933,0.789c0.004,0,0.328-0.307,0.431-0.395
			c2.31-2.012,4.613-4.03,6.816-6.025c0-1.817,0-3.636,0-5.451c-1.347-1.021-2.779-1.957-4.162-2.941
			c-1.019,0.678-2.06,1.333-3.121,1.971C214.927,211.5,213.915,210.836,212.869,210.207z"/>
		<path d="M215.952,212.145c1.062-0.638,2.103-1.293,3.121-1.971c1.383,0.984,2.815,1.92,4.162,2.941c0,1.815,0,3.634,0,5.451
			c-2.204,1.995-4.507,4.014-6.816,6.025c-0.103,0.088-0.427,0.395-0.431,0.395c-0.081,0.002-0.826-0.694-0.933-0.789
			c-2.1-1.826-4.256-3.783-6.346-5.596c0-1.339,0-2.689,0-4.09c0-0.393-0.104-1.043,0-1.363c0.075-0.243,0.654-0.513,1.004-0.752
			c1.028-0.71,2.269-1.666,3.155-2.189C213.915,210.836,214.927,211.5,215.952,212.145z M210.177,213.867c0,1.361,0,2.727,0,4.088
			c1.654,1.501,3.385,2.948,5.096,4.449c0.181,0.158,0.604,0.648,0.716,0.646c0.063-0.004,0.54-0.488,0.72-0.646
			c1.526-1.35,2.861-2.522,4.34-3.838c0.202-0.178,0.648-0.423,0.717-0.646c0.075-0.243,0-0.671,0-1.004c0-1.046,0-2.117,0-3.084
			c-0.884-0.648-1.814-1.249-2.691-1.902c-1.063,0.62-2.055,1.317-3.121,1.938c-1.008-0.651-2.038-1.284-3.046-1.938
			C211.992,212.574,211.036,213.17,210.177,213.867z"/>
		<path fill="#FFFFFF" d="M212.903,211.93c1.01,0.653,2.041,1.284,3.049,1.938c1.066-0.62,2.057-1.317,3.121-1.938
			c0.877,0.653,1.808,1.254,2.689,1.902c0,0.967,0,2.038,0,3.084c0,0.333,0.077,0.761,0,1.004c-0.066,0.224-0.514,0.469-0.717,0.646
			c-1.477,1.315-2.813,2.49-4.338,3.838c-0.183,0.158-0.657,0.643-0.72,0.646c-0.112,0.002-0.535-0.488-0.716-0.646
			c-1.714-1.501-3.441-2.948-5.096-4.449c0-1.361,0-2.727,0-4.088C211.036,213.17,211.992,212.574,212.903,211.93z"/>
	</g>
</g>
<g>
	<g>
		<path fill="#FFFFFF" d="M195.999,155.96c0,6.121,0,12.245,0,18.364c-6.12,0-12.244,0-18.364,0c0-4.504,0-9.103,0-13.666
			c0-1.512-0.146-3.102,0-4.556c0.005-0.044-0.057-0.156,0.07-0.143C183.804,155.96,189.9,155.96,195.999,155.96z M179.428,158.794
			c0,3.515,0,7.028,0,10.546c2.366,0,4.733,0,7.102,0c-0.094-0.311-0.379-0.742-0.466-1.186c-1.805-0.021-3.705,0.051-5.452-0.035
			c0.023-2.283-0.048-4.662,0.036-6.887c3.203,0,6.409,0,9.612,0c0,0.695,0,1.388,0,2.08c0.452,0.04,0.813,0.171,1.183,0.287
			c0-1.637,0-3.274,0-4.913c-3.98,0-7.962,0-11.944,0C179.454,158.701,179.426,158.734,179.428,158.794z M183.804,162.273
			c-0.28,1.011-0.323,2.258-0.61,3.264c-0.066-0.392-0.169-0.692-0.286-1.148c-0.076-0.291-0.131-0.997-0.502-0.932
			c-0.426,0.075-0.321,1.467-0.609,1.686c-0.13,0-0.262,0-0.396,0c-0.072,0.107-0.019,0.338-0.035,0.502
			c0.272-0.015,0.608,0.035,0.824-0.037c0.123-0.259,0.151-0.615,0.287-0.859c0.232,0.794,0.318,1.738,0.682,2.402
			c0.377,0.075,0.389-0.363,0.43-0.609c0.151-0.898,0.266-1.929,0.469-2.691c0.047,0.421,0.174,0.813,0.284,1.293
			c0.08,0.338,0.098,1.129,0.466,1.111c0.434-0.021,0.446-1.216,0.719-1.363c0.099,0.511,0.313,0.907,1.076,0.754
			c0-0.168,0-0.335,0-0.502c-0.143,0-0.287,0-0.432,0c-0.26-0.307-0.296-1.227-0.717-1.184c-0.386,0.038-0.331,0.908-0.608,1.184
			c-0.221-0.975-0.404-1.99-0.684-2.906C184.044,162.178,183.889,162.201,183.804,162.273z M190.08,164.354
			c-1.777-0.107-3.258,1.381-3.048,3.264c0.204,1.839,2.391,3.15,4.304,2.083c0.649,0.617,1.282,1.251,1.901,1.899
			c0.369-0.278,0.689-0.6,0.969-0.966c-0.648-0.623-1.282-1.254-1.901-1.902C193.556,166.759,191.979,164.468,190.08,164.354z"/>
		<path d="M179.498,158.687c3.982,0,7.964,0,11.944,0c0,1.639,0,3.276,0,4.913c-0.37-0.116-0.73-0.25-1.183-0.287
			c0-0.694,0-1.385,0-2.08c-3.203,0-6.409,0-9.612,0c-0.084,2.225-0.013,4.604-0.036,6.887c1.747,0.086,3.647,0.012,5.452,0.035
			c0.087,0.443,0.372,0.875,0.466,1.186c-2.368,0-4.735,0-7.102,0c0-3.518,0-7.031,0-10.547
			C179.426,158.734,179.454,158.701,179.498,158.687z"/>
		<path d="M184.161,162.236c0.279,0.919,0.463,1.932,0.684,2.906c0.277-0.273,0.223-1.144,0.608-1.184
			c0.421-0.041,0.457,0.879,0.717,1.184c0.145,0,0.289,0,0.432,0c0,0.167,0,0.336,0,0.502c-0.764,0.156-0.978-0.241-1.076-0.754
			c-0.272,0.151-0.283,1.344-0.719,1.366c-0.368,0.015-0.386-0.774-0.466-1.114c-0.11-0.479-0.237-0.87-0.284-1.291
			c-0.203,0.763-0.317,1.793-0.469,2.689c-0.041,0.248-0.053,0.685-0.43,0.612c-0.363-0.667-0.449-1.611-0.682-2.405
			c-0.136,0.248-0.164,0.601-0.287,0.861c-0.216,0.07-0.552,0.021-0.824,0.038c0.014-0.165-0.037-0.397,0.035-0.505
			c0.134,0,0.266,0,0.396,0c0.288-0.219,0.183-1.608,0.609-1.683c0.372-0.068,0.426,0.638,0.502,0.932
			c0.117,0.453,0.22,0.756,0.286,1.148c0.287-1.007,0.33-2.256,0.61-3.264C183.889,162.201,184.044,162.178,184.161,162.236z"/>
		<path d="M192.305,168.731c0.619,0.648,1.253,1.279,1.901,1.899c-0.279,0.369-0.6,0.69-0.969,0.969
			c-0.619-0.648-1.252-1.282-1.9-1.902c-1.914,1.07-4.101-0.241-4.305-2.08c-0.21-1.883,1.271-3.371,3.05-3.264
			C191.979,164.468,193.556,166.759,192.305,168.731z M188.216,166.541c-0.543,1.359,0.547,2.483,1.687,2.475
			c1.001-0.006,1.958-0.883,1.757-2.152c-0.136-0.861-1.027-1.485-1.937-1.398C188.866,165.549,188.392,166.105,188.216,166.541z"/>
		<path fill="#FFFFFF" d="M189.723,165.465c0.909-0.087,1.801,0.537,1.937,1.398c0.201,1.27-0.756,2.146-1.757,2.155
			c-1.14,0.006-2.229-1.118-1.687-2.478C188.392,166.105,188.866,165.549,189.723,165.465z"/>
	</g>
</g>
<g>
	<g>
		<path fill="#FFFFFF" d="M225.994,155.96c0,6.121,0,12.245,0,18.364c-6.121,0-12.244,0-18.365,0c0-4.504,0-9.103,0-13.666
			c0-1.512-0.145-3.102,0-4.556c0.006-0.044-0.056-0.156,0.071-0.143C213.799,155.96,219.896,155.96,225.994,155.96z
			 M213.834,159.08c-0.201,0.75-0.506,1.588-1.472,1.436c-0.327-0.052-0.576-0.291-0.896-0.43c-0.373,0.308-0.749,0.612-1.004,1.039
			c0.151,0.391,0.43,0.685,0.43,1.111c-0.001,0.807-0.781,1.037-1.471,1.256c0,0.454,0,0.908,0,1.361
			c0.789,0.224,1.646,0.574,1.435,1.543c-0.07,0.318-0.298,0.507-0.395,0.861c0.289,0.38,0.625,0.715,1.004,1.006
			c0.343-0.148,0.592-0.392,0.968-0.432c0.905-0.096,1.198,0.693,1.4,1.436c0.467,0,0.933,0,1.398,0
			c0.198-0.62,0.358-1.323,1.041-1.436c0.538-0.085,0.89,0.239,1.327,0.432c0.38-0.291,0.715-0.626,1.005-1.006
			c-0.13-0.421-0.426-0.65-0.431-1.111c-0.011-0.817,0.753-1.071,1.471-1.291c0-0.455,0-0.909,0-1.363
			c-0.716-0.217-1.466-0.451-1.471-1.256c-0.004-0.488,0.314-0.719,0.431-1.184c-0.326-0.331-0.62-0.694-1.005-0.967
			c-0.328,0.147-0.581,0.38-0.934,0.43c-0.937,0.133-1.242-0.681-1.435-1.433C214.767,159.08,214.301,159.08,213.834,159.08z
			 M221.151,165.824c-0.036,0.66-0.763,0.972-1.291,0.537c-0.173,0.187-0.417,0.301-0.503,0.574
			c0.447,0.505,0.086,1.212-0.572,1.219c0,0.241,0,0.479,0,0.719c0.675,0.06,1.026,0.801,0.538,1.329
			c0.219,0.14,0.327,0.392,0.576,0.502c0.496-0.456,1.231-0.099,1.252,0.536c0.253,0,0.503,0,0.754,0
			c-0.039-0.677,0.763-0.973,1.219-0.536c0.243-0.13,0.394-0.352,0.574-0.54c-0.498-0.515-0.107-1.223,0.538-1.291
			c0-0.238,0-0.478,0-0.719c-0.721-0.007-0.991-0.789-0.538-1.291c-0.219-0.14-0.326-0.39-0.574-0.502
			c-0.472,0.43-1.24,0.141-1.219-0.537C221.654,165.824,221.404,165.824,221.151,165.824z"/>
		<path d="M215.233,159.08c0.192,0.754,0.497,1.567,1.434,1.436c0.354-0.05,0.605-0.283,0.934-0.43
			c0.387,0.272,0.679,0.636,1.005,0.967c-0.115,0.465-0.433,0.695-0.431,1.184c0.005,0.803,0.757,1.039,1.471,1.256
			c0,0.454,0,0.908,0,1.361c-0.718,0.222-1.479,0.476-1.471,1.291c0.006,0.463,0.301,0.692,0.431,1.113
			c-0.29,0.38-0.623,0.715-1.005,1.004c-0.436-0.192-0.788-0.517-1.326-0.43c-0.682,0.112-0.844,0.815-1.041,1.436
			c-0.467,0-0.933,0-1.399,0c-0.201-0.742-0.495-1.531-1.397-1.436c-0.379,0.04-0.628,0.281-0.97,0.43
			c-0.379-0.289-0.714-0.624-1.004-1.004c0.096-0.354,0.326-0.543,0.395-0.861c0.212-0.969-0.646-1.319-1.434-1.543
			c0-0.453,0-0.907,0-1.361c0.688-0.221,1.469-0.449,1.469-1.256c0.001-0.43-0.278-0.721-0.43-1.111
			c0.255-0.427,0.631-0.732,1.004-1.041c0.319,0.141,0.568,0.377,0.896,0.432c0.966,0.152,1.271-0.686,1.473-1.436
			C214.301,159.08,214.767,159.08,215.233,159.08z M212.687,164.533c0.283,1.87,3.21,1.962,3.659,0.146
			c0.354-1.442-0.794-2.464-2.01-2.333C213.261,162.46,212.509,163.361,212.687,164.533z"/>
		<path fill="#FFFFFF" d="M214.336,162.346c1.216-0.131,2.364,0.891,2.01,2.33c-0.449,1.817-3.375,1.728-3.659-0.143
			C212.509,163.361,213.261,162.46,214.336,162.346z"/>
		<path d="M221.905,165.824c-0.021,0.678,0.747,0.967,1.219,0.537c0.249,0.112,0.355,0.362,0.574,0.502
			c-0.453,0.502-0.183,1.284,0.538,1.291c0,0.241,0,0.479,0,0.719c-0.646,0.068-1.036,0.776-0.538,1.291
			c-0.181,0.188-0.331,0.41-0.574,0.54c-0.456-0.437-1.258-0.141-1.219,0.536c-0.251,0-0.501,0-0.754,0
			c-0.021-0.635-0.756-0.992-1.252-0.536c-0.249-0.11-0.357-0.362-0.576-0.502c0.488-0.528,0.137-1.27-0.538-1.329
			c0-0.238,0-0.478,0-0.719c0.658-0.007,1.02-0.714,0.572-1.219c0.086-0.273,0.33-0.388,0.503-0.574
			c0.528,0.435,1.255,0.123,1.291-0.537C221.404,165.824,221.654,165.824,221.905,165.824z M221.545,169.521
			c1.229-0.038,1.278-2.192-0.214-1.973c-0.025,0.002-0.034,0.034-0.036,0.034C220.13,167.821,220.424,169.553,221.545,169.521z"/>
		<path fill="#FFFFFF" d="M221.295,167.582c0.002,0,0.011-0.032,0.036-0.037c1.492-0.219,1.443,1.938,0.214,1.973
			C220.424,169.553,220.13,167.821,221.295,167.582z"/>
	</g>
</g>
<line fill="none" stroke="#2A2A2A" stroke-width="0.6066" stroke-miterlimit="10" x1="78.191" y1="220.989" x2="243.745" y2="220.989"/>
<linearGradient id="SVGID_1_" gradientUnits="userSpaceOnUse" x1="-28.7993" y1="229.0791" x2="280.0566" y2="229.0791" gradientTransform="matrix(-8.000000e-004 0.2312 -1.8779 -0.0063 576.9278 170.4438)">
	<stop  offset="0" style="stop-color:#FFFFFF;stop-opacity:0"/>
	<stop  offset="0.5" style="stop-color:#FFFFFF"/>
	<stop  offset="1" style="stop-color:#FFFFFF"/>
</linearGradient>
<polygon display="none" opacity="0.93" fill="url(#SVGID_1_)" points="-28.236,233.163 -27.997,161.756 321.52,162.929 
	321.277,234.336 "/>
<linearGradient id="SVGID_2_" gradientUnits="userSpaceOnUse" x1="403.4346" y1="230.1113" x2="681.7168" y2="230.1113" gradientTransform="matrix(0.2345 -0.0014 0.0082 1.3486 195.0025 -162.6758)">
	<stop  offset="0" style="stop-color:#FFFFFF;stop-opacity:0"/>
	<stop  offset="0.5" style="stop-color:#FFFFFF"/>
	<stop  offset="1" style="stop-color:#FFFFFF"/>
</linearGradient>
<polygon opacity="0.93" fill="url(#SVGID_2_)" points="357.439,259.738 292.191,260.139 290.808,34.042 356.058,33.644 "/>
</svg>
